<svg width="548" height="548" viewBox="0 0 548 548" fill="none" xmlns="http://www.w3.org/2000/svg">
<path d="M527.722 427.138C531.985 422.876 531.985 415.965 527.722 411.703C523.46 407.441 516.55 407.441 512.288 411.703L527.722 427.138ZM26.3164 133.787L18.5067 126.163H18.5067L26.3164 133.787ZM398.169 519.041H45.8407V540.869H398.169V519.041ZM29.4698 502.67V152.846H7.64192V502.67H29.4698ZM512.288 411.703L409.745 514.246L425.179 529.681L527.722 427.138L512.288 411.703ZM34.1261 141.41L136.9 36.1297L121.281 20.8821L18.5067 126.163L34.1261 141.41ZM45.8407 519.041C36.7993 519.041 29.4698 511.712 29.4698 502.67H7.64192C7.64192 523.767 24.7441 540.869 45.8407 540.869V519.041ZM398.169 540.869C408.3 540.869 418.016 536.845 425.179 529.681L409.745 514.246C406.675 517.316 402.511 519.041 398.169 519.041V540.869ZM29.4698 152.846C29.4698 148.572 31.1409 144.468 34.1262 141.41L18.5067 126.163C11.5411 133.298 7.64192 142.874 7.64192 152.846H29.4698Z" fill="black"/>
<path d="M150.986 424.813H503.507C518.576 424.813 530.792 412.598 530.792 397.529V45.0078C530.792 29.9388 518.576 17.7229 503.507 17.7229H150.986C135.917 17.7229 123.701 29.9387 123.701 45.0078V397.529C123.701 412.598 135.917 424.813 150.986 424.813Z" fill="white" stroke="black" stroke-width="21.8279"/>
<path d="M121.003 41.9868L17.2083 143.085C17.6576 244.633 18.5562 455.548 18.5562 486.821C18.5562 518.094 34.732 528.608 42.8199 529.956H409.471L509.222 426.162H160.094C128.821 426.162 121.003 405.493 121.003 395.158V41.9868Z" fill="black" stroke="black" stroke-width="2.69596"/>
<g clip-path="url(#clip0_127_212)">
<path d="M292.456 148.942V135.759C292.456 128.399 286.489 122.43 279.13 122.43H213.754C206.396 122.43 200.429 128.399 200.429 135.759V171.148V307.241C200.429 314.601 206.396 320.57 213.754 320.57H439.246C446.604 320.57 452.571 314.601 452.571 307.241V175.593C452.571 168.233 446.604 162.264 439.246 162.264H305.782C298.423 162.271 292.456 156.302 292.456 148.942Z" stroke="black" stroke-width="20.3464"/>
<path d="M315.308 281.45C300.061 276.601 288.119 264.391 283.499 249.166C282.993 247.497 284.036 245.751 285.73 245.353L290.869 244.164C292.399 243.81 293.923 244.708 294.39 246.213C298.006 257.759 307.115 267.009 318.721 270.695C332.325 275.02 347.199 271.049 356.896 261.015C359.533 258.29 363.755 257.898 366.897 260.016L367.7 260.56C369.147 261.533 369.495 263.538 368.427 264.916C356.087 280.824 334.708 287.615 315.308 281.45Z" fill="black"/>
<path d="M301.262 243.089L292.74 228.401C291.122 225.613 287.089 225.619 285.484 228.42L277.025 243.146C275.42 245.947 277.443 249.431 280.667 249.425L297.652 249.387C300.87 249.381 302.88 245.884 301.262 243.089Z" fill="black"/>
<path d="M341.826 194.593C357.074 199.443 369.015 211.652 373.636 226.878C374.141 228.547 373.098 230.292 371.404 230.69L366.265 231.879C364.735 232.233 363.212 231.335 362.744 229.83C359.128 218.285 350.019 209.035 338.413 205.348C324.809 201.023 309.935 204.994 300.238 215.029C297.602 217.754 293.379 218.146 290.237 216.028L289.434 215.484C287.987 214.51 287.639 212.506 288.707 211.127C301.047 195.219 322.426 188.428 341.826 194.593Z" fill="black"/>
<path d="M355.872 232.954L364.394 247.642C366.012 250.43 370.045 250.424 371.651 247.623L380.109 232.897C381.714 230.096 379.692 226.612 376.468 226.618L359.482 226.656C356.264 226.663 354.254 230.159 355.872 232.954Z" fill="black"/>
</g>
<defs>
<clipPath id="clip0_127_212">
<rect width="265" height="211" fill="white" transform="translate(194 116)"/>
</clipPath>
</defs>
</svg>
