<svg width="128" height="40" viewBox="0 0 128 40" fill="none" xmlns="http://www.w3.org/2000/svg">
<path fill-rule="evenodd" clip-rule="evenodd" d="M18.2502 7.01351C18.1978 7.02048 17.9978 7.04174 17.8058 7.06073C16.4546 7.19426 14.9908 7.61211 13.7012 8.23238C13.0227 8.5588 12.7115 8.73623 12.0601 9.16805C10.5852 10.1458 9.30926 11.4242 8.31742 12.9179C7.34221 14.3866 6.63415 16.0345 6.2864 17.6449C6.07895 18.6056 5.9981 19.4416 6.00003 20.6051C6.00318 22.468 6.28789 23.9842 6.9402 25.6119C8.2591 28.9029 10.5963 31.4473 13.679 32.948C16.0815 34.1176 18.7206 34.4957 21.3928 34.0533C22.5623 33.8597 23.7855 33.4574 24.9035 32.8987C27.0934 31.8045 28.8556 30.2554 30.1828 28.2579C31.4082 26.4138 32.1283 24.5081 32.4277 22.3169C32.5224 21.6237 32.5461 20.0246 32.473 19.2583C32.2389 16.804 31.4182 14.6406 29.9192 12.5261C29.0944 11.3628 27.8844 10.1725 26.6709 9.33089C24.8963 8.10008 23.0001 7.3663 20.8271 7.0695C20.4918 7.02368 18.4984 6.98036 18.2502 7.01351ZM50.3593 7.03116C49.6005 7.10075 48.6513 7.29997 47.8806 7.55139C45.5843 8.30057 43.79 9.64848 42.6914 11.4497C42.1166 12.3922 41.7585 13.3499 41.5767 14.4313C41.4969 14.9061 41.4964 16.092 41.5759 16.549C41.7505 17.5526 42.1176 18.4591 42.7066 19.3411C43.3717 20.337 44.2086 21.0192 45.6485 21.7396C46.8959 22.3635 48.452 22.864 50.645 23.3466C51.9826 23.641 53.5327 24.0788 54.0964 24.3214C55.3212 24.8486 55.7911 25.9388 55.2675 27.0379C54.9225 27.762 54.1699 28.3277 53.0734 28.687C52.8465 28.7614 52.5394 28.8445 52.3909 28.8719C51.348 29.0638 50.0734 29.0011 49.1803 28.7141C48.7309 28.5696 48.0272 28.2133 47.6899 27.9595C47.3596 27.7109 46.9596 27.2955 46.756 26.9898C46.5259 26.6443 46.2961 26.0524 46.2961 25.8054C46.2961 25.76 46.2879 25.7228 46.278 25.7228C46.256 25.7228 44.7604 26.3982 42.9452 27.2279C42.2109 27.5635 41.4717 27.8997 41.3025 27.9749C41.1038 28.0632 40.9948 28.1292 40.9949 28.161C40.9949 28.3433 41.4656 29.296 41.801 29.7927C42.3912 30.6666 42.999 31.2963 43.9364 32.0049C45.2545 33.0014 46.6793 33.6219 48.461 33.9753C51.6119 34.6003 55.1202 34.0174 57.6124 32.4548C59.3027 31.395 60.6109 29.9085 61.2079 28.3692C61.5344 27.5273 61.6685 26.7909 61.6669 25.8496C61.6628 23.5097 60.675 21.6454 58.7765 20.3939C57.7594 19.7234 56.9217 19.4333 53.4861 18.5615C51.3922 18.0303 51.0647 17.941 50.4387 17.731C49.1916 17.3125 48.3363 16.8726 47.8145 16.3811C47.3969 15.9879 47.2589 15.6444 47.2902 15.0755C47.3425 14.1241 47.8079 13.3227 48.6224 12.7817C49.2615 12.3572 49.9959 12.1382 51.028 12.0644C52.5519 11.9554 53.8284 12.3134 54.9952 13.177C55.321 13.4181 55.8414 13.9194 56.0574 14.2001C56.1447 14.3135 56.2278 14.4072 56.2421 14.4082C56.2638 14.4097 58.1053 13.1834 60.0941 11.843L60.5755 11.5185L60.4758 11.3561C59.7003 10.0928 58.1162 8.76329 56.5233 8.0387C55.2992 7.48183 54.0408 7.15481 52.629 7.02663C52.2149 6.98905 50.7876 6.99187 50.3593 7.03116ZM79.3576 7.04184C76.0499 7.41988 73.32 9.00029 71.8206 11.405C71.1698 12.4487 70.774 13.5632 70.6418 14.7236C70.5926 15.1558 70.6193 16.2313 70.6887 16.6124C70.8173 17.3186 70.9808 17.8164 71.2926 18.4503C72.0302 19.9497 72.9083 20.7944 74.6753 21.7041C75.8473 22.3075 77.4889 22.8439 79.6085 23.3161C81.2369 23.6789 82.5857 24.0586 83.2303 24.3357C83.8853 24.6172 84.3762 25.1474 84.531 25.7403C84.7503 26.5812 84.2708 27.5461 83.3308 28.1555C82.4423 28.7315 81.2348 29.024 79.9448 28.9759C78.7118 28.93 77.8539 28.6685 76.9291 28.0567C76.4507 27.7401 75.91 27.1407 75.6672 26.6576C75.5454 26.4154 75.4054 25.9738 75.4054 25.8321C75.4054 25.772 75.3936 25.7228 75.3791 25.7228C75.3647 25.7228 75.0754 25.8491 74.7363 26.0034C74.3972 26.1578 73.9055 26.3811 73.6436 26.4996C73.3817 26.6181 72.7175 26.9214 72.1675 27.1735C71.6176 27.4257 70.9319 27.738 70.6438 27.8676C70.3557 27.9971 70.1101 28.113 70.098 28.1251C70.0675 28.1554 70.2921 28.7149 70.4883 29.0974C71.1009 30.2912 72.0717 31.3403 73.469 32.3185C74.9301 33.3413 76.8446 33.9809 79.056 34.185C79.5393 34.2296 80.7182 34.2299 81.2146 34.1856C84.2085 33.9182 86.6457 32.8692 88.471 31.0623C89.7146 29.8313 90.4007 28.5837 90.6798 27.046C90.7757 26.5176 90.7841 25.2918 90.6955 24.7563C90.4537 23.2941 89.873 22.1508 88.8923 21.206C88.2329 20.5707 87.4069 20.036 86.5793 19.7085C86.0106 19.4834 84.8727 19.1475 83.4049 18.7714C83.0296 18.6752 82.1884 18.4596 81.5356 18.2923C80.1549 17.9384 79.4591 17.7256 78.7362 17.4363C77.8673 17.0885 77.3486 16.7847 76.9099 16.3665C76.5083 15.9837 76.3804 15.6942 76.3854 15.1801C76.3981 13.8749 77.2529 12.799 78.6433 12.3383C79.847 11.9394 81.4134 11.9467 82.5771 12.3567C83.5104 12.6856 84.4919 13.3763 85.1117 14.1406C85.2248 14.2801 85.3347 14.3942 85.3561 14.3942C85.4135 14.3942 89.6558 11.548 89.6572 11.5085C89.6588 11.4663 89.3309 10.9848 89.1108 10.7064C88.5792 10.0338 87.7055 9.26302 86.8333 8.69744C85.5653 7.87522 83.9838 7.32035 82.1987 7.07137C81.6894 7.00033 79.8848 6.9816 79.3576 7.04184ZM111.133 7.01475C109.879 7.14102 109.013 7.32254 107.981 7.67529C106.521 8.17448 105.023 9.02247 103.801 10.0417C103.402 10.374 102.649 11.1216 102.273 11.558C100.869 13.1877 99.7956 15.2562 99.2964 17.2937C98.5219 20.4548 98.9126 23.95 100.364 26.8478C101.74 29.5931 103.857 31.691 106.585 33.01C108.117 33.7506 109.651 34.1363 111.37 34.2129C113.331 34.3002 115.216 33.9545 117.051 33.1706C119.185 32.2596 121.029 30.8551 122.693 28.8725L123 28.5069L122.908 28.4187C122.857 28.3701 122.494 28.0332 122.101 27.6699C121.708 27.3067 121.28 26.9074 121.149 26.7826C121.018 26.6578 120.703 26.3656 120.45 26.1331C120.197 25.9006 119.883 25.608 119.752 25.483C119.621 25.3579 119.46 25.2091 119.394 25.1524L119.274 25.0493L118.68 25.6324C117.162 27.121 115.8 27.939 114.145 28.3556C113.404 28.5421 113.023 28.5879 112.197 28.5894C111.311 28.5909 110.832 28.5255 110.075 28.2996C108.738 27.9005 107.373 26.9729 106.452 25.837C105.691 24.8985 105.073 23.6311 104.821 22.4906C104.656 21.7464 104.627 21.4544 104.627 20.5734C104.627 19.714 104.663 19.3421 104.804 18.7038C105.136 17.2039 105.893 15.7965 106.927 14.757C108.15 13.5274 109.719 12.7609 111.403 12.5697C111.881 12.5155 113.017 12.5491 113.546 12.6333C114.658 12.8103 115.67 13.1745 116.495 13.6948C116.862 13.926 117.535 14.4321 117.889 14.7432C118.043 14.8783 118.18 14.9762 118.194 14.9608C118.208 14.9455 118.774 14.2698 119.452 13.4593C120.13 12.6489 120.867 11.7694 121.091 11.5049C121.315 11.2404 121.497 11.0122 121.495 10.9978C121.49 10.9485 120.656 10.1959 120.228 9.85439C118.462 8.44437 116.794 7.64712 114.744 7.2327C113.887 7.05939 113.467 7.02096 112.324 7.0111C111.739 7.00609 111.203 7.00771 111.133 7.01475ZM20.0913 12.5433C20.952 12.6378 21.8691 12.9355 22.684 13.3849C24.1086 14.1703 25.2734 15.4498 26.0063 17.0343C26.8933 18.9519 27.0021 21.313 26.2978 23.362C26.1224 23.8726 25.6933 24.7371 25.3935 25.1841C24.5905 26.3812 23.5512 27.3055 22.3508 27.8901C21.4051 28.3506 20.571 28.5575 19.5041 28.5961C18.323 28.6389 17.2627 28.4178 16.2108 27.9095C14.5024 27.0839 13.1582 25.6357 12.3806 23.783C11.9814 22.832 11.799 21.9555 11.7679 20.8389C11.7408 19.8653 11.8389 19.0313 12.0786 18.1968C12.3695 17.1842 12.9575 16.0527 13.61 15.2497C13.8268 14.9829 14.4468 14.3641 14.7425 14.1195C15.3697 13.6005 16.2251 13.1268 17.0122 12.8626C18.0085 12.5281 19.0087 12.4244 20.0913 12.5433Z" fill="#424143"/>
</svg>
