<svg width="1640" height="576" viewBox="0 0 1640 576" fill="none" xmlns="http://www.w3.org/2000/svg">
<path d="M1578.62 346L1629.38 386.25L1602.12 409.25L1552.25 369L1578.62 346ZM1631.5 281.375V288.75C1631.5 302.667 1629.54 315.167 1625.62 326.25C1621.79 337.25 1616.29 346.667 1609.12 354.5C1602.04 362.25 1593.67 368.208 1584 372.375C1574.33 376.458 1563.67 378.5 1552 378.5C1540.25 378.5 1529.5 376.458 1519.75 372.375C1510.08 368.208 1501.67 362.25 1494.5 354.5C1487.42 346.667 1481.92 337.25 1478 326.25C1474.17 315.167 1472.25 302.667 1472.25 288.75V281.375C1472.25 267.458 1474.17 254.958 1478 243.875C1481.92 232.792 1487.38 223.375 1494.38 215.625C1501.46 207.792 1509.83 201.833 1519.5 197.75C1529.25 193.583 1540 191.5 1551.75 191.5C1563.42 191.5 1574.08 193.583 1583.75 197.75C1593.5 201.833 1601.92 207.792 1609 215.625C1616.17 223.375 1621.71 232.792 1625.62 243.875C1629.54 254.958 1631.5 267.458 1631.5 281.375ZM1586.88 288.75V281.125C1586.88 272.125 1586.08 264.208 1584.5 257.375C1583 250.458 1580.75 244.667 1577.75 240C1574.75 235.333 1571.04 231.833 1566.62 229.5C1562.29 227.083 1557.33 225.875 1551.75 225.875C1545.92 225.875 1540.83 227.083 1536.5 229.5C1532.17 231.833 1528.54 235.333 1525.62 240C1522.71 244.667 1520.5 250.458 1519 257.375C1517.58 264.208 1516.88 272.125 1516.88 281.125V288.75C1516.88 297.667 1517.58 305.583 1519 312.5C1520.5 319.333 1522.71 325.125 1525.62 329.875C1528.62 334.625 1532.29 338.208 1536.62 340.625C1541.04 343.042 1546.17 344.25 1552 344.25C1557.58 344.25 1562.54 343.042 1566.88 340.625C1571.21 338.208 1574.83 334.625 1577.75 329.875C1580.75 325.125 1583 319.333 1584.5 312.5C1586.08 305.583 1586.88 297.667 1586.88 288.75Z" fill="#212121"/>
<path d="M1419.75 266.25V300H1326.38V266.25H1419.75ZM1341 194V376H1297.12V194H1341ZM1449.25 194V376H1405.5V194H1449.25Z" fill="#212121"/>
<path d="M1203.88 360.125L1238.88 240.75H1284.12L1229.75 396.125C1228.58 399.542 1227.04 403.208 1225.12 407.125C1223.21 411.125 1220.58 414.917 1217.25 418.5C1213.92 422.083 1209.62 425 1204.38 427.25C1199.21 429.5 1192.79 430.625 1185.12 430.625C1181.04 430.625 1178.04 430.417 1176.12 430C1174.29 429.667 1171.46 429.042 1167.62 428.125V398C1168.71 398 1169.62 398 1170.38 398C1171.21 398 1172.12 398 1173.12 398C1177.62 398 1181.21 397.542 1183.88 396.625C1186.62 395.708 1188.71 394.375 1190.12 392.625C1191.62 390.875 1192.79 388.75 1193.62 386.25L1203.88 360.125ZM1195 240.75L1221.62 335.375L1226.25 380H1198L1149.88 240.75H1195Z" fill="#212121"/>
<path d="M1066.12 240.75L1085.12 278L1104.75 240.75H1148.5L1113 306.625L1150.38 376H1106.25L1085.12 336L1064.12 376H1020L1057.38 306.625L1022 240.75H1066.12Z" fill="#212121"/>
<path d="M883.875 309.75V307.125C883.875 297.208 885.292 288.083 888.125 279.75C890.958 271.333 895.125 264.042 900.625 257.875C906.125 251.708 912.917 246.917 921 243.5C929.083 240 938.417 238.25 949 238.25C959.667 238.25 969.042 240 977.125 243.5C985.292 246.917 992.125 251.708 997.625 257.875C1003.12 264.042 1007.29 271.333 1010.12 279.75C1012.96 288.083 1014.38 297.208 1014.38 307.125V309.75C1014.38 319.583 1012.96 328.708 1010.12 337.125C1007.29 345.458 1003.12 352.75 997.625 359C992.125 365.167 985.333 369.958 977.25 373.375C969.167 376.792 959.833 378.5 949.25 378.5C938.667 378.5 929.292 376.792 921.125 373.375C912.958 369.958 906.125 365.167 900.625 359C895.125 352.75 890.958 345.458 888.125 337.125C885.292 328.708 883.875 319.583 883.875 309.75ZM926 307.125V309.75C926 314.833 926.375 319.583 927.125 324C927.875 328.417 929.125 332.292 930.875 335.625C932.625 338.875 935 341.417 938 343.25C941 345.083 944.75 346 949.25 346C953.667 346 957.333 345.083 960.25 343.25C963.25 341.417 965.625 338.875 967.375 335.625C969.125 332.292 970.375 328.417 971.125 324C971.875 319.583 972.25 314.833 972.25 309.75V307.125C972.25 302.208 971.875 297.583 971.125 293.25C970.375 288.833 969.125 284.958 967.375 281.625C965.625 278.208 963.25 275.542 960.25 273.625C957.25 271.708 953.5 270.75 949 270.75C944.583 270.75 940.875 271.708 937.875 273.625C934.958 275.542 932.625 278.208 930.875 281.625C929.125 284.958 927.875 288.833 927.125 293.25C926.375 297.583 926 302.208 926 307.125Z" fill="#212121"/>
<path d="M800.125 298.625H753.25L753 269.875H791C797.833 269.875 803.292 269.125 807.375 267.625C811.458 266.042 814.417 263.75 816.25 260.75C818.167 257.75 819.125 254 819.125 249.5C819.125 244.333 818.167 240.167 816.25 237C814.333 233.833 811.292 231.542 807.125 230.125C803.042 228.625 797.75 227.875 791.25 227.875H769.75V376H725.875V194H791.25C802.5 194 812.542 195.042 821.375 197.125C830.208 199.125 837.708 202.208 843.875 206.375C850.125 210.542 854.875 215.792 858.125 222.125C861.375 228.375 863 235.75 863 244.25C863 251.667 861.417 258.625 858.25 265.125C855.083 271.625 849.792 276.917 842.375 281C835.042 285 825 287.083 812.25 287.25L800.125 298.625ZM798.375 376H742.625L757.625 342.25H798.375C804.375 342.25 809.167 341.333 812.75 339.5C816.417 337.583 819.042 335.083 820.625 332C822.292 328.833 823.125 325.333 823.125 321.5C823.125 316.833 822.333 312.792 820.75 309.375C819.25 305.958 816.833 303.333 813.5 301.5C810.167 299.583 805.708 298.625 800.125 298.625H763.25L763.5 269.875H807.625L817.875 281.375C830.042 280.875 839.667 282.583 846.75 286.5C853.917 290.417 859.042 295.583 862.125 302C865.208 308.417 866.75 315.125 866.75 322.125C866.75 334.042 864.167 344 859 352C853.917 360 846.292 366 836.125 370C825.958 374 813.375 376 798.375 376Z" fill="#212121"/>
<path d="M0 149.004C0 135.749 10.7452 125.004 24 125.004H111C124.255 125.004 135 135.749 135 149.004V416C135 429.255 145.745 440 159 440H426.708C439.963 440 450.708 450.745 450.708 464V552C450.708 565.255 439.963 576 426.708 576H24C10.7452 576 0 565.255 0 552V149.004Z" fill="#212121"/>
<path fill-rule="evenodd" clip-rule="evenodd" d="M147.292 0C134.037 0 123.292 10.7452 123.292 24V426.996C123.292 440.251 134.037 450.996 147.292 450.996H550C563.255 450.996 574 440.251 574 426.996V24C574 10.7452 563.255 0 550 0H147.292ZM168.521 21.2426C155.266 21.2426 144.521 31.9877 144.521 45.2425V405.753C144.521 419.008 155.266 429.753 168.521 429.753H528.771C542.026 429.753 552.771 419.008 552.771 405.753V45.2426C552.771 31.9877 542.026 21.2426 528.771 21.2426H168.521Z" fill="#212121"/>
<path d="M284.959 171.574L235.969 220.596" stroke="#212121" stroke-width="40" stroke-linecap="round"/>
<path d="M412.333 269.845L461.809 221.315" stroke="#212121" stroke-width="40" stroke-linecap="round"/>
<path d="M285.189 269.848L236.199 220.826" stroke="#212121" stroke-width="40" stroke-linecap="round"/>
<path d="M413.081 171.574L461.581 221.082" stroke="#212121" stroke-width="40" stroke-linecap="round"/>
<path d="M361.305 143.796L338.031 307.029" stroke="#212121" stroke-width="42" stroke-linecap="round"/>
<path d="M7.34851 131.286L127.782 9.55005L134.723 133.737L7.34851 131.286Z" fill="#212121"/>
<path d="M444.809 568.055L565.651 445.911L444.809 449.996V568.055Z" fill="#212121"/>
</svg>
