<svg width="295" height="295" viewBox="0 0 295 295" fill="none" xmlns="http://www.w3.org/2000/svg">
<path d="M61.1419 86.7532L67.4588 94.3103L78.6558 91.196L69.2728 102.22L67.6702 115.217L61.3504 107.667L50.1564 110.774L59.5394 99.7508L61.1419 86.7532Z" fill="#D2D2D2"/>
<path d="M236.021 174.526L193.272 190.94V237.297L236.021 219.8V174.526Z" fill="white" stroke="#26C2A0" stroke-width="0.36075"/>
<path fill-rule="evenodd" clip-rule="evenodd" d="M242.634 172.946C242.634 170.834 241.573 168.855 239.814 167.686C238.056 166.516 235.825 166.313 233.872 167.131L191.783 184.849C189.442 185.834 187.919 188.133 187.919 190.675V239.405C187.919 241.517 188.98 243.496 190.739 244.665C192.498 245.835 194.728 246.046 196.682 245.221L238.77 227.502C241.111 226.517 242.634 224.218 242.634 221.685V172.946ZM230.008 182.458V217.492L200.546 229.891V194.857L230.008 182.458Z" fill="#26C2A0"/>
<path d="M189.304 193.826L158.099 181.38L157.197 218.357L188.582 231.705L189.304 193.826Z" fill="white" stroke="#26C2A0" stroke-width="0.36075"/>
<path d="M193.633 158.112L163.691 171.64L162.248 175.067L193.633 186.431L224.477 172.542L193.633 158.112Z" fill="white" stroke="#26C2A0" stroke-width="0.36075"/>
<path fill-rule="evenodd" clip-rule="evenodd" d="M154.597 167.127C152.644 166.311 150.413 166.513 148.654 167.682C146.896 168.852 145.834 170.831 145.834 172.943V221.68C145.834 224.214 147.358 226.512 149.698 227.497L191.787 245.216C193.74 246.041 195.971 245.831 197.73 244.661C199.488 243.491 200.549 241.513 200.549 239.401V190.67C200.549 188.128 199.026 185.83 196.686 184.845L154.597 167.127ZM158.461 182.455L187.923 194.863V229.888L158.461 217.489V182.455Z" fill="#26C2A0"/>
<path fill-rule="evenodd" clip-rule="evenodd" d="M196.339 149.4C194.765 148.743 192.998 148.752 191.441 149.417L149.681 167.136C147.348 168.121 145.834 170.411 145.834 172.945C145.834 175.478 147.348 177.768 149.681 178.762L191.441 196.481C192.998 197.146 194.765 197.146 196.339 196.498L238.756 178.77C241.105 177.794 242.637 175.495 242.637 172.945C242.637 170.403 241.105 168.104 238.756 167.119L196.339 149.4ZM193.924 162.077L219.943 172.945L193.924 183.821L168.309 172.945L193.924 162.077Z" fill="#26C2A0"/>
<path d="M194.174 192.203L151.425 208.617V254.973L194.174 237.477V192.203Z" fill="white" stroke="#26C2A0" stroke-width="0.36075"/>
<path fill-rule="evenodd" clip-rule="evenodd" d="M200.787 190.623C200.787 188.51 199.726 186.532 197.967 185.362C196.209 184.193 193.978 183.99 192.025 184.807L149.936 202.526C147.595 203.511 146.072 205.809 146.072 208.351V257.081C146.072 259.194 147.133 261.172 148.892 262.342C150.651 263.511 152.881 263.723 154.835 262.897L196.923 245.178C199.264 244.193 200.787 241.895 200.787 239.361V190.623ZM188.161 200.135V235.168L158.699 247.567V212.534L188.161 200.135Z" fill="#26C2A0"/>
<path d="M147.457 211.503L116.252 199.057L115.35 236.034L146.735 249.381L147.457 211.503Z" fill="white" stroke="#26C2A0" stroke-width="0.36075"/>
<path d="M151.786 175.789L121.844 189.317L120.401 192.744L151.786 204.107L182.63 190.219L151.786 175.789Z" fill="white" stroke="#26C2A0" stroke-width="0.36075"/>
<path fill-rule="evenodd" clip-rule="evenodd" d="M112.75 184.804C110.797 183.988 108.566 184.189 106.807 185.359C105.049 186.529 103.987 188.507 103.987 190.619V239.357C103.987 241.89 105.511 244.189 107.851 245.174L149.94 262.893C151.893 263.717 154.124 263.507 155.883 262.338C157.641 261.168 158.703 259.189 158.703 257.077V208.347C158.703 205.805 157.179 203.506 154.839 202.522L112.75 184.804ZM116.614 200.131L146.076 212.539V247.564L116.614 235.165V200.131Z" fill="#26C2A0"/>
<path fill-rule="evenodd" clip-rule="evenodd" d="M154.492 167.077C152.918 166.42 151.151 166.428 149.594 167.094L107.834 184.812C105.501 185.797 103.987 188.087 103.987 190.621C103.987 193.155 105.501 195.445 107.834 196.438L149.594 214.157C151.151 214.822 152.918 214.822 154.492 214.174L196.909 196.447C199.258 195.47 200.79 193.172 200.79 190.621C200.79 188.079 199.258 185.781 196.909 184.796L154.492 167.077ZM152.077 179.754L178.096 190.621L152.077 201.497L126.462 190.621L152.077 179.754Z" fill="#26C2A0"/>
<path d="M152.327 209.879L109.578 226.293V272.65L152.327 255.153V209.879Z" fill="white" stroke="#26C2A0" stroke-width="0.36075"/>
<path fill-rule="evenodd" clip-rule="evenodd" d="M158.94 208.299C158.94 206.187 157.879 204.209 156.121 203.039C154.362 201.869 152.131 201.666 150.178 202.484L108.089 220.203C105.749 221.188 104.225 223.486 104.225 226.028V274.758C104.225 276.871 105.286 278.849 107.045 280.019C108.804 281.188 111.035 281.4 112.988 280.574L155.076 262.855C157.417 261.87 158.94 259.572 158.94 257.038V208.299ZM146.314 217.811V252.845L116.852 265.244V230.211L146.314 217.811Z" fill="#26C2A0"/>
<path d="M105.61 229.179L74.4052 216.734L73.5033 253.71L104.889 267.058L105.61 229.179Z" fill="#26C2A0" stroke="#26C2A0" stroke-width="0.36075"/>
<path d="M109.939 193.465L79.9968 206.993L78.5538 210.42L109.939 221.784L140.783 207.895L109.939 193.465Z" fill="white" stroke="#26C2A0" stroke-width="0.36075"/>
<path fill-rule="evenodd" clip-rule="evenodd" d="M70.903 202.481C68.9499 201.665 66.719 201.866 64.9604 203.036C63.2017 204.205 62.1406 206.184 62.1406 208.296V257.033C62.1406 259.567 63.664 261.866 66.0046 262.851L108.093 280.569C110.046 281.394 112.277 281.184 114.036 280.014C115.795 278.845 116.856 276.866 116.856 274.754V226.024C116.856 223.482 115.332 221.183 112.992 220.198L70.903 202.481ZM74.767 217.808L104.229 230.216V265.241L74.767 252.842V217.808Z" fill="#26C2A0"/>
<path fill-rule="evenodd" clip-rule="evenodd" d="M112.645 184.753C111.071 184.097 109.304 184.105 107.747 184.77L65.9867 202.489C63.6545 203.474 62.1396 205.764 62.1396 208.298C62.1396 210.832 63.6545 213.122 65.9867 214.115L107.747 231.834C109.304 232.499 111.071 232.499 112.645 231.851L155.062 214.123C157.411 213.147 158.943 210.848 158.943 208.298C158.943 205.756 157.411 203.457 155.062 202.473L112.645 184.753ZM110.23 197.43L136.249 208.298L110.23 219.174L84.6153 208.298L110.23 197.43Z" fill="#26C2A0"/>
<path d="M236.021 126.186L193.272 142.6V188.956L236.021 171.46V126.186Z" fill="white" stroke="#26C2A0" stroke-width="0.36075"/>
<path fill-rule="evenodd" clip-rule="evenodd" d="M242.634 124.606C242.634 122.493 241.573 120.515 239.814 119.345C238.056 118.176 235.825 117.973 233.872 118.79L191.783 136.509C189.442 137.494 187.919 139.792 187.919 142.334V191.064C187.919 193.177 188.98 195.155 190.739 196.325C192.498 197.494 194.728 197.706 196.682 196.88L238.77 179.161C241.111 178.176 242.634 175.878 242.634 173.344V124.606ZM230.008 134.118V169.151L200.546 181.55V146.517L230.008 134.118Z" fill="#26C2A0"/>
<path d="M189.304 145.486L158.099 133.04L157.197 170.017L188.582 183.364L189.304 145.486Z" fill="white" stroke="#26C2A0" stroke-width="0.36075"/>
<path d="M193.633 109.771L163.691 123.3L162.248 126.727L193.633 138.09L224.477 124.201L193.633 109.771Z" fill="white" stroke="#26C2A0" stroke-width="0.36075"/>
<path fill-rule="evenodd" clip-rule="evenodd" d="M154.597 118.787C152.644 117.971 150.413 118.173 148.654 119.342C146.896 120.512 145.834 122.49 145.834 124.603V173.34C145.834 175.874 147.358 178.172 149.698 179.157L191.787 196.876C193.74 197.7 195.971 197.49 197.73 196.321C199.488 195.151 200.549 193.173 200.549 191.06V142.33C200.549 139.788 199.026 137.49 196.686 136.505L154.597 118.787ZM158.461 134.114L187.923 146.522V181.548L158.461 169.148V134.114Z" fill="#26C2A0"/>
<path fill-rule="evenodd" clip-rule="evenodd" d="M196.339 101.06C194.765 100.403 192.998 100.411 191.441 101.076L149.681 118.795C147.348 119.78 145.834 122.07 145.834 124.604C145.834 127.138 147.348 129.428 149.681 130.421L191.441 148.14C192.998 148.805 194.765 148.805 196.339 148.157L238.756 130.43C241.105 129.453 242.637 127.155 242.637 124.604C242.637 122.062 241.105 119.764 238.756 118.779L196.339 101.06ZM193.924 113.737L219.943 124.604L193.924 135.48L168.309 124.604L193.924 113.737Z" fill="#26C2A0"/>
<path d="M191.649 145.666L148.9 162.08V208.436L191.649 190.94V145.666Z" fill="white" stroke="#26C2A0" stroke-width="0.36075"/>
<path fill-rule="evenodd" clip-rule="evenodd" d="M198.262 144.086C198.262 141.974 197.201 139.995 195.442 138.826C193.684 137.656 191.453 137.453 189.5 138.27L147.411 155.989C145.07 156.974 143.547 159.273 143.547 161.815V210.545C143.547 212.657 144.608 214.636 146.367 215.805C148.125 216.975 150.356 217.186 152.309 216.36L194.398 198.642C196.739 197.656 198.262 195.358 198.262 192.824V144.086ZM185.636 153.598V188.631L156.174 201.031V165.997L185.636 153.598Z" fill="#26C2A0"/>
<path d="M144.932 164.966L113.727 152.52L112.825 189.497L144.21 202.845L144.932 164.966Z" fill="#26C2A0" stroke="#26C2A0" stroke-width="0.36075"/>
<path d="M149.261 129.252L119.318 142.78L117.875 146.207L149.261 157.571L180.105 143.682L149.261 129.252Z" fill="white" stroke="#26C2A0" stroke-width="0.36075"/>
<path fill-rule="evenodd" clip-rule="evenodd" d="M110.225 138.267C108.272 137.451 106.041 137.653 104.282 138.822C102.523 139.992 101.462 141.97 101.462 144.083V192.82C101.462 195.354 102.986 197.652 105.326 198.637L147.415 216.356C149.368 217.18 151.599 216.971 153.358 215.801C155.116 214.631 156.177 212.653 156.177 210.54V161.81C156.177 159.268 154.654 156.97 152.313 155.985L110.225 138.267ZM114.089 153.595L143.55 166.003V201.028L114.089 188.628V153.595Z" fill="#26C2A0"/>
<path fill-rule="evenodd" clip-rule="evenodd" d="M151.967 120.54C150.393 119.883 148.626 119.892 147.069 120.557L105.308 138.276C102.976 139.261 101.461 141.551 101.461 144.085C101.461 146.618 102.976 148.908 105.308 149.902L147.069 167.621C148.626 168.286 150.393 168.286 151.967 167.638L194.384 149.91C196.733 148.933 198.265 146.635 198.265 144.085C198.265 141.542 196.733 139.244 194.384 138.259L151.967 120.54ZM149.552 133.217L175.571 144.085L149.552 154.961L123.937 144.085L149.552 133.217Z" fill="#26C2A0"/>
<path d="M236.021 73.1554L193.272 89.5695V135.926L236.021 118.429V73.1554Z" fill="white" stroke="#26C2A0" stroke-width="0.36075"/>
<path fill-rule="evenodd" clip-rule="evenodd" d="M242.634 71.5756C242.634 69.4632 241.573 67.4847 239.814 66.3151C238.056 65.1456 235.825 64.9426 233.872 65.7599L191.783 83.4788C189.442 84.4639 187.919 86.7622 187.919 89.3042V138.034C187.919 140.147 188.98 142.125 190.739 143.295C192.498 144.464 194.728 144.676 196.682 143.85L238.77 126.131C241.111 125.146 242.634 122.848 242.634 120.314V71.5756ZM230.008 81.0875V116.121L200.546 128.52V93.4868L230.008 81.0875Z" fill="#26C2A0"/>
<path d="M189.304 92.4554L158.099 80.0095L157.197 116.986L188.582 130.334L189.304 92.4554Z" fill="#26C2A0" stroke="#26C2A0" stroke-width="0.36075"/>
<path d="M193.633 56.7412L163.691 70.2693L162.248 73.6964L193.633 85.0601L224.477 71.1712L193.633 56.7412Z" fill="white" stroke="#26C2A0" stroke-width="0.36075"/>
<path fill-rule="evenodd" clip-rule="evenodd" d="M154.597 65.7567C152.644 64.9407 150.413 65.1423 148.654 66.3119C146.896 67.4815 145.834 69.46 145.834 71.5723V120.31C145.834 122.843 147.358 125.142 149.698 126.127L191.787 143.846C193.74 144.67 195.971 144.46 197.73 143.29C199.488 142.121 200.549 140.142 200.549 138.03V89.2999C200.549 86.7577 199.026 84.4593 196.686 83.4745L154.597 65.7567ZM158.461 81.0842L187.923 93.4922V128.517L158.461 116.118V81.0842Z" fill="#26C2A0"/>
<path fill-rule="evenodd" clip-rule="evenodd" d="M196.339 48.0294C194.765 47.3727 192.998 47.3812 191.441 48.0463L149.681 65.7652C147.348 66.7502 145.834 69.0401 145.834 71.574C145.834 74.1077 147.348 76.3976 149.681 77.3911L191.441 95.11C192.998 95.7752 194.765 95.7752 196.339 95.1269L238.756 77.3993C241.105 76.4228 242.637 74.1244 242.637 71.574C242.637 69.0318 241.105 66.7334 238.756 65.7486L196.339 48.0294ZM193.924 60.7065L219.943 71.5741L193.924 82.4499L168.309 71.5741L193.924 60.7065Z" fill="#26C2A0"/>
</svg>
