<svg width="295" height="295" viewBox="0 0 295 295" fill="none" xmlns="http://www.w3.org/2000/svg">
<path d="M254.389 135.366L254.77 150.735L255.529 151.097L255.148 135.728C255.024 135.686 254.898 135.636 254.769 135.575C254.641 135.513 254.514 135.443 254.389 135.366Z" fill="#D2D2D2"/>
<path d="M254.984 129.115L254.603 113.745L253.844 113.383L254.225 128.752C254.349 128.795 254.475 128.845 254.604 128.906C254.733 128.968 254.859 129.038 254.984 129.115V129.115Z" fill="#D2D2D2"/>
<path d="M257.683 134.085L271.559 140.703L271.538 139.863L257.662 133.244C257.681 133.389 257.693 133.534 257.697 133.676C257.701 133.819 257.695 133.955 257.683 134.085V134.085Z" fill="#D2D2D2"/>
<path d="M251.691 130.396L237.814 123.778L237.835 124.618L251.711 131.237C251.692 131.092 251.68 130.947 251.676 130.805C251.673 130.662 251.678 130.526 251.691 130.396V130.396Z" fill="#D2D2D2"/>
<path d="M252.778 128.726L242.697 113.178L242.175 113.517L252.257 129.064C252.407 128.916 252.582 128.803 252.778 128.726Z" fill="#D2D2D2"/>
<path d="M256.595 135.755L266.676 151.303L267.198 150.964L257.117 135.416C256.967 135.565 256.791 135.678 256.595 135.755V135.755Z" fill="#D2D2D2"/>
<path d="M257.016 131.334L266.558 125.147L266.007 124.297L256.464 130.484C256.669 130.752 256.854 131.038 257.016 131.334V131.334Z" fill="#D2D2D2"/>
<path d="M252.358 133.146L242.815 139.334L243.367 140.184L252.909 133.997C252.704 133.729 252.519 133.443 252.358 133.146V133.146Z" fill="#D2D2D2"/>
<circle r="3.43519" transform="matrix(0.902585 0.430511 0.0247811 0.999693 254.923 132.18)" fill="white"/>
<path d="M27.2981 66.3915L34.364 81.0081L46.5879 88.8676L36.4989 91.4808L34.9786 104.078L27.9096 89.4656L15.6894 81.6025L25.7784 78.9893L27.2981 66.3915Z" fill="#D2D2D2"/>
<path fill-rule="evenodd" clip-rule="evenodd" d="M156.407 153.864C156.407 151.537 155.238 149.357 153.3 148.068C151.363 146.779 148.905 146.556 146.753 147.456L100.378 166.979C97.7994 168.065 96.1209 170.597 96.1209 173.398V227.09C96.1209 229.417 97.2901 231.597 99.2278 232.886C101.166 234.175 103.624 234.408 105.776 233.498L152.15 213.975C154.729 212.889 156.407 210.357 156.407 207.565V153.864ZM142.495 164.344V202.945L110.034 216.607V178.006L142.495 164.344Z" fill="#26C2A0"/>
<path d="M149.121 155.605L102.019 173.69V224.767L149.121 205.489V155.605Z" fill="#26C2A0" stroke="#26C2A0" stroke-width="0.397483"/>
<path d="M97.6467 176.87L63.2644 163.157L62.2707 203.899L96.8517 218.606L97.6467 176.87Z" fill="white" stroke="#26C2A0" stroke-width="0.397483"/>
<path d="M102.416 137.519L69.4253 152.425L67.8354 156.201L102.416 168.722L136.401 153.418L102.416 137.519Z" fill="white" stroke="#26C2A0" stroke-width="0.397483"/>
<path fill-rule="evenodd" clip-rule="evenodd" d="M59.4056 147.453C57.2536 146.554 54.7956 146.776 52.8578 148.064C50.9201 149.353 49.7509 151.533 49.7509 153.86V207.56C49.7509 210.352 51.4294 212.885 54.0084 213.97L100.383 233.493C102.535 234.401 104.993 234.17 106.93 232.881C108.868 231.593 110.037 229.413 110.037 227.085V173.393C110.037 170.592 108.359 168.06 105.78 166.975L59.4056 147.453ZM63.663 164.341L96.1247 178.012V216.604L63.663 202.942V164.341Z" fill="#26C2A0"/>
<path fill-rule="evenodd" clip-rule="evenodd" d="M105.398 127.92C103.664 127.197 101.717 127.206 100.001 127.939L53.9887 147.462C51.419 148.547 49.7499 151.07 49.7499 153.862C49.7499 156.654 51.419 159.177 53.9887 160.272L100.001 179.795C101.717 180.528 103.664 180.528 105.398 179.813L152.134 160.281C154.723 159.205 156.411 156.672 156.411 153.862C156.411 151.061 154.723 148.529 152.134 147.444L105.398 127.92ZM102.737 141.888L131.406 153.862L102.737 165.846L74.5142 153.862L102.737 141.888Z" fill="#26C2A0"/>
<path fill-rule="evenodd" clip-rule="evenodd" d="M202.913 173.341C202.913 171.013 201.744 168.833 199.806 167.544C197.868 166.256 195.41 166.032 193.258 166.933L146.884 186.456C144.305 187.541 142.626 190.074 142.626 192.874V246.566C142.626 248.894 143.796 251.074 145.733 252.363C147.671 253.651 150.129 253.884 152.281 252.974L198.655 233.451C201.234 232.366 202.913 229.833 202.913 227.042V173.341ZM189.001 183.821V222.422L156.539 236.084V197.483L189.001 183.821Z" fill="#26C2A0"/>
<path d="M195.626 175.081L148.524 193.167V244.243L195.626 224.965V175.081Z" fill="#26C2A0" stroke="#26C2A0" stroke-width="0.397483"/>
<path d="M144.152 196.347L109.77 182.633L108.776 223.375L143.357 238.082L144.152 196.347Z" fill="white" stroke="#26C2A0" stroke-width="0.397483"/>
<path d="M148.922 156.996L115.931 171.901L114.341 175.678L148.922 188.198L182.907 172.895L148.922 156.996Z" fill="white" stroke="#26C2A0" stroke-width="0.397483"/>
<path fill-rule="evenodd" clip-rule="evenodd" d="M105.911 166.929C103.759 166.03 101.301 166.252 99.3633 167.541C97.4256 168.83 96.2564 171.01 96.2564 173.337V227.037C96.2564 229.829 97.9349 232.361 100.514 233.446L146.888 252.97C149.04 253.878 151.498 253.647 153.436 252.358C155.374 251.069 156.543 248.889 156.543 246.562V192.87C156.543 190.069 154.864 187.536 152.285 186.451L105.911 166.929ZM110.169 183.817L142.63 197.489V236.08L110.169 222.419V183.817Z" fill="#26C2A0"/>
<path fill-rule="evenodd" clip-rule="evenodd" d="M151.904 147.397C150.169 146.673 148.222 146.683 146.507 147.416L100.494 166.939C97.9245 168.024 96.2554 170.547 96.2554 173.339C96.2554 176.131 97.9245 178.654 100.494 179.748L146.507 199.272C148.223 200.004 150.17 200.004 151.904 199.29L198.64 179.757C201.228 178.681 202.916 176.149 202.916 173.339C202.916 170.538 201.228 168.005 198.64 166.92L151.904 147.397ZM149.243 161.365L177.911 173.339L149.243 185.322L121.02 173.339L149.243 161.365Z" fill="#26C2A0"/>
<path fill-rule="evenodd" clip-rule="evenodd" d="M249.021 192.817C249.021 190.49 247.852 188.31 245.914 187.021C243.976 185.733 241.518 185.509 239.366 186.41L192.992 205.933C190.413 207.018 188.734 209.55 188.734 212.351V266.043C188.734 268.371 189.904 270.551 191.841 271.839C193.779 273.128 196.237 273.361 198.389 272.451L244.763 252.928C247.342 251.843 249.021 249.31 249.021 246.519V192.817ZM235.109 203.298V241.899L202.647 255.56V216.96L235.109 203.298Z" fill="#26C2A0"/>
<path d="M241.734 194.558L194.632 212.644V263.72L241.734 244.442V194.558Z" fill="#26C2A0" stroke="#26C2A0" stroke-width="0.397483"/>
<path d="M190.26 215.824L155.878 202.11L154.884 242.852L189.465 257.559L190.26 215.824Z" fill="white" stroke="#26C2A0" stroke-width="0.397483"/>
<path d="M195.03 176.473L162.039 191.378L160.449 195.154L195.03 207.675L229.015 192.372L195.03 176.473Z" fill="white" stroke="#26C2A0" stroke-width="0.397483"/>
<path fill-rule="evenodd" clip-rule="evenodd" d="M152.019 186.406C149.867 185.507 147.409 185.729 145.471 187.018C143.534 188.306 142.364 190.486 142.364 192.814V246.514C142.364 249.305 144.043 251.838 146.622 252.923L192.996 272.446C195.148 273.355 197.606 273.123 199.544 271.834C201.482 270.546 202.651 268.366 202.651 266.038V212.346C202.651 209.545 200.972 207.013 198.393 205.928L152.019 186.406ZM156.277 203.294L188.738 216.966V255.557L156.277 241.895V203.294Z" fill="#26C2A0"/>
<path fill-rule="evenodd" clip-rule="evenodd" d="M198.012 166.874C196.277 166.15 194.33 166.159 192.615 166.892L146.602 186.415C144.033 187.501 142.363 190.024 142.363 192.816C142.363 195.607 144.033 198.13 146.602 199.225L192.615 218.748C194.331 219.481 196.278 219.481 198.012 218.767L244.748 199.234C247.336 198.158 249.024 195.626 249.024 192.816C249.024 190.015 247.336 187.482 244.748 186.397L198.012 166.874ZM195.351 180.842L224.019 192.816L195.351 204.799L167.128 192.816L195.351 180.842Z" fill="#26C2A0"/>
<path fill-rule="evenodd" clip-rule="evenodd" d="M181.051 105.371C181.051 103.044 179.882 100.864 177.944 99.5749C176.007 98.2862 173.549 98.0626 171.397 98.9631L125.022 118.486C122.443 119.572 120.765 122.104 120.765 124.905V178.597C120.765 180.924 121.934 183.104 123.872 184.393C125.81 185.682 128.268 185.915 130.42 185.005L176.794 165.482C179.373 164.396 181.051 161.864 181.051 159.072V105.371ZM167.139 115.851V154.452L134.678 168.114V129.513L167.139 115.851Z" fill="#26C2A0"/>
<path d="M173.765 107.112L126.663 125.197V176.274L173.765 156.996V107.112Z" fill="#26C2A0" stroke="#26C2A0" stroke-width="0.397483"/>
<path d="M122.291 128.377L87.9083 114.664L86.9146 155.406L121.496 170.113L122.291 128.377Z" fill="white" stroke="#26C2A0" stroke-width="0.397483"/>
<path d="M127.06 89.0262L94.0692 103.932L92.4793 107.708L127.06 120.229L161.045 104.926L127.06 89.0262Z" fill="white" stroke="#26C2A0" stroke-width="0.397483"/>
<path fill-rule="evenodd" clip-rule="evenodd" d="M84.0495 98.9595C81.8975 98.0605 79.4395 98.2826 77.5018 99.5713C75.564 100.86 74.3949 103.04 74.3949 105.367V159.067C74.3949 161.859 76.0733 164.392 78.6523 165.477L125.027 185C127.179 185.908 129.637 185.677 131.574 184.388C133.512 183.099 134.681 180.92 134.681 178.592V124.9C134.681 122.099 133.003 119.567 130.424 118.482L84.0495 98.9595ZM88.3069 115.848L120.769 129.519V168.111L88.3069 154.449V115.848Z" fill="#26C2A0"/>
<path fill-rule="evenodd" clip-rule="evenodd" d="M130.042 79.4274C128.308 78.7039 126.361 78.7132 124.645 79.446L78.6326 98.9692C76.0629 100.055 74.3938 102.578 74.3938 105.369C74.3938 108.161 76.0629 110.684 78.6326 111.779L124.645 131.302C126.361 132.035 128.308 132.035 130.042 131.321L176.778 111.788C179.367 110.712 181.054 108.18 181.054 105.369C181.054 102.568 179.367 100.036 176.778 98.9509L130.042 79.4274ZM127.381 93.3953L156.049 105.37L127.381 117.353L99.1581 105.37L127.381 93.3953Z" fill="#26C2A0"/>
<path fill-rule="evenodd" clip-rule="evenodd" d="M227.159 124.848C227.159 122.52 225.99 120.34 224.052 119.052C222.115 117.763 219.657 117.539 217.505 118.44L171.13 137.963C168.551 139.048 166.873 141.581 166.873 144.382V198.074C166.873 200.401 168.042 202.581 169.98 203.87C171.917 205.158 174.376 205.391 176.527 204.481L222.902 184.958C225.481 183.873 227.159 181.34 227.159 178.549V124.848ZM213.247 135.328V173.929L180.786 187.591V148.99L213.247 135.328Z" fill="#26C2A0"/>
<path d="M219.873 126.588L172.771 144.674V195.75L219.873 176.473V126.588Z" fill="#26C2A0" stroke="#26C2A0" stroke-width="0.397483"/>
<path d="M168.399 147.854L134.016 134.141L133.023 174.883L167.604 189.589L168.399 147.854Z" fill="white" stroke="#26C2A0" stroke-width="0.397483"/>
<path d="M173.168 108.503L140.177 123.408L138.587 127.185L173.168 139.705L207.153 124.402L173.168 108.503Z" fill="white" stroke="#26C2A0" stroke-width="0.397483"/>
<path fill-rule="evenodd" clip-rule="evenodd" d="M130.158 118.436C128.006 117.537 125.548 117.759 123.61 119.048C121.672 120.337 120.503 122.517 120.503 124.844V178.544C120.503 181.336 122.181 183.868 124.76 184.954L171.135 204.477C173.287 205.385 175.745 205.154 177.682 203.865C179.62 202.576 180.789 200.396 180.789 198.069V144.377C180.789 141.576 179.111 139.043 176.532 137.958L130.158 118.436ZM134.415 135.325L166.877 148.996V187.588L134.415 173.926V135.325Z" fill="#26C2A0"/>
<path fill-rule="evenodd" clip-rule="evenodd" d="M176.15 98.904C174.416 98.1804 172.469 98.1897 170.753 98.9226L124.741 118.446C122.171 119.531 120.502 122.054 120.502 124.846C120.502 127.638 122.171 130.161 124.741 131.255L170.753 150.779C172.469 151.512 174.416 151.512 176.15 150.797L222.886 131.265C225.475 130.189 227.162 127.656 227.162 124.846C227.162 122.045 225.475 119.513 222.886 118.427L176.15 98.904ZM173.489 112.872L202.157 124.846L173.489 136.829L145.266 124.846L173.489 112.872Z" fill="#26C2A0"/>
<path fill-rule="evenodd" clip-rule="evenodd" d="M205.695 56.4807C205.695 54.1533 204.526 51.9733 202.588 50.6846C200.651 49.396 198.193 49.1723 196.041 50.0729L149.666 69.596C147.087 70.6813 145.409 73.2138 145.409 76.0146V129.707C145.409 132.034 146.578 134.214 148.516 135.503C150.453 136.791 152.912 137.024 155.064 136.114L201.438 116.591C204.017 115.506 205.695 112.974 205.695 110.182V56.4807ZM191.783 66.9612V105.562L159.322 119.224V80.623L191.783 66.9612Z" fill="#26C2A0"/>
<path d="M198.409 58.2214L151.307 76.3069V127.383L198.409 108.106V58.2214Z" fill="#26C2A0" stroke="#26C2A0" stroke-width="0.397483"/>
<path d="M146.934 79.4866L112.552 65.7734L111.559 106.515L146.14 121.222L146.934 79.4866Z" fill="white" stroke="#26C2A0" stroke-width="0.397483"/>
<path d="M151.704 40.1359L118.713 55.0415L117.123 58.8176L151.704 71.3383L185.689 56.0352L151.704 40.1359Z" fill="white" stroke="#26C2A0" stroke-width="0.397483"/>
<path fill-rule="evenodd" clip-rule="evenodd" d="M108.693 50.0692C106.541 49.1702 104.083 49.3922 102.146 50.6809C100.208 51.9696 99.0388 54.1496 99.0388 56.477V110.177C99.0388 112.969 100.717 115.501 103.296 116.586L149.671 136.11C151.823 137.018 154.281 136.787 156.218 135.498C158.156 134.209 159.325 132.029 159.325 129.702V76.0097C159.325 73.2087 157.647 70.6763 155.068 69.5911L108.693 50.0692ZM112.951 66.9574L145.413 80.6288V119.22L112.951 105.559V66.9574Z" fill="#26C2A0"/>
<path fill-rule="evenodd" clip-rule="evenodd" d="M154.686 30.5369C152.952 29.8133 151.005 29.8226 149.289 30.5555L103.277 50.0787C100.707 51.164 99.0378 53.6871 99.0378 56.479C99.0378 59.2707 100.707 61.7937 103.277 62.8884L149.289 82.4116C151.005 83.1444 152.952 83.1444 154.686 82.4302L201.422 62.8975C204.011 61.8215 205.698 59.2891 205.698 56.4789C205.698 53.6779 204.011 51.1455 201.422 50.0604L154.686 30.5369ZM152.025 44.5048L180.693 56.479L152.025 68.4623L123.802 56.479L152.025 44.5048Z" fill="#26C2A0"/>
</svg>
