<svg width="291" height="202" viewBox="0 0 291 202" fill="none" xmlns="http://www.w3.org/2000/svg">
<g clip-path="url(#clip0_6_1534)">
<path d="M54.685 146.603L57.4987 150.864L62.5471 151.633L58.2855 154.447L57.5166 159.495L54.7016 155.236L49.6545 154.465L53.9161 151.651L54.685 146.603Z" fill="#231F20"/>
<path d="M132.467 122.705L135.28 126.966L140.329 127.735L136.067 130.549L135.298 135.597L132.483 131.337L127.436 130.567L131.698 127.753L132.467 122.705Z" fill="#231F20"/>
<path d="M76.6755 64.4804L79.489 68.742L84.5376 69.5109L80.276 72.3246L79.5069 77.373L76.6921 73.1134L71.645 72.3425L75.9066 69.5288L76.6755 64.4804Z" fill="#231F20"/>
<path d="M133.949 72.5644L136.762 76.826L141.811 77.5949L137.549 80.4084L136.78 85.4568L133.965 81.1974L128.918 80.4263L133.18 77.6128L133.949 72.5644Z" fill="#231F20"/>
<path d="M10.5561 83.7908L13.3696 88.0521L18.418 88.8212L14.1566 91.6347L13.3875 96.6831L10.5727 92.4237L5.52563 91.6527L9.78721 88.8391L10.5561 83.7908Z" fill="#231F20"/>
<path d="M113.005 175.239L126.007 173.115L135.804 164.307L136.165 190.19C136.176 190.962 135.75 191.65 135.054 191.984C134.357 192.317 133.555 192.219 132.96 191.727L113.005 175.239ZM135.149 165.803L126.311 173.749L114.581 175.666L133.39 191.207C133.786 191.534 134.298 191.597 134.762 191.375C135.225 191.153 135.497 190.713 135.49 190.199L135.149 165.803Z" fill="#26C2A0"/>
<path d="M124.617 33.7019L117.09 22.8894L104.917 17.8517L128.111 6.35693L128.261 6.65943L128.111 6.35693C128.803 6.01391 129.606 6.10182 130.208 6.58591C130.81 7.07 131.067 7.83622 130.88 8.58538L124.617 33.7019ZM106.549 17.7963L117.531 22.3409L124.321 32.0955L130.225 8.42195C130.35 7.92369 130.185 7.43384 129.785 7.11185C129.384 6.79009 128.871 6.73406 128.41 6.96193L106.549 17.7963Z" fill="#26C2A0"/>
<path d="M178.565 140.134C178.726 140.044 178.93 140.102 179.02 140.263C179.11 140.424 179.052 140.628 178.891 140.718L178.565 140.134ZM184.965 165.73L185.124 166.025L185.124 166.025L184.965 165.73ZM172.727 144.324L168.179 160.342L167.535 160.159L172.083 144.141L172.727 144.324ZM168.524 160.962L184.429 165.478L184.247 166.122L168.342 161.605L168.524 160.962ZM178.891 140.718L172.965 144.023L172.639 143.439L178.565 140.134L178.891 140.718ZM184.806 165.436L190.853 162.159L191.172 162.747L185.124 166.025L184.806 165.436ZM168.179 160.342C168.103 160.608 168.258 160.886 168.524 160.962L168.342 161.605C167.719 161.429 167.358 160.781 167.535 160.159L168.179 160.342ZM172.083 144.141C172.168 143.843 172.368 143.59 172.639 143.439L172.965 144.023C172.849 144.088 172.763 144.196 172.727 144.324L172.083 144.141ZM184.429 165.478C184.555 165.514 184.69 165.499 184.806 165.436L185.124 166.025C184.856 166.17 184.541 166.205 184.247 166.122L184.429 165.478Z" fill="black"/>
<path d="M178.719 140.781L174.103 157.038L173.459 156.855L178.075 140.599L178.719 140.781ZM174.449 157.657L190.705 162.273L190.522 162.917L174.266 158.301L174.449 157.657ZM195.595 145.052L179.339 140.436L179.522 139.792L195.778 144.408L195.595 145.052ZM191.325 161.928L195.941 145.671L196.584 145.854L191.968 162.111L191.325 161.928ZM195.778 144.408C196.4 144.585 196.761 145.232 196.584 145.854L195.941 145.671C196.017 145.405 195.862 145.127 195.595 145.052L195.778 144.408ZM174.103 157.038C174.027 157.304 174.182 157.582 174.449 157.657L174.266 158.301C173.644 158.124 173.283 157.477 173.459 156.855L174.103 157.038ZM178.075 140.599C178.252 139.977 178.9 139.615 179.522 139.792L179.339 140.436C179.072 140.36 178.795 140.515 178.719 140.781L178.075 140.599ZM190.705 162.273C190.972 162.349 191.249 162.194 191.325 161.928L191.968 162.111C191.792 162.733 191.144 163.094 190.522 162.917L190.705 162.273Z" fill="black"/>
<path d="M190.32 162.64L184.59 165.935C180.139 164.65 170.894 161.982 169.521 161.593C168.149 161.203 167.889 160.362 167.931 159.99L172.5 143.899L178.298 140.815L173.947 156.137C173.557 157.509 174.367 158.11 174.821 158.239L190.32 162.64Z" fill="black" stroke="black" stroke-width="0.0826383"/>
<path d="M71.7126 28.3353C71.6077 28.1833 71.3993 28.1451 71.2473 28.2501C71.0952 28.3551 71.057 28.5634 71.162 28.7155L71.7126 28.3353ZM54.6578 48.4669L54.3848 48.6603L54.3848 48.6603L54.6578 48.4669ZM75.0974 34.6746L72.0972 51.053L72.7553 51.1736L75.7555 34.7951L75.0974 34.6746ZM71.5131 51.4562L55.2499 48.4771L55.1293 49.1352L71.3926 52.1143L71.5131 51.4562ZM71.162 28.7155L75.0167 34.2991L75.5673 33.919L71.7126 28.3353L71.162 28.7155ZM54.9308 48.2736L50.9551 42.6606L50.4092 43.0473L54.3848 48.6603L54.9308 48.2736ZM72.0972 51.053C72.0472 51.3256 71.7858 51.5061 71.5131 51.4562L71.3926 52.1143C72.0287 52.2309 72.6388 51.8097 72.7553 51.1736L72.0972 51.053ZM75.7555 34.7951C75.8114 34.4897 75.7438 34.1745 75.5673 33.919L75.0167 34.2991C75.0923 34.4086 75.1213 34.5437 75.0974 34.6746L75.7555 34.7951ZM55.2499 48.4771C55.121 48.4535 55.0065 48.3805 54.9308 48.2736L54.3848 48.6603C54.5615 48.9097 54.8287 49.0802 55.1293 49.1352L55.2499 48.4771Z" fill="black"/>
<path d="M71.2883 28.8481L68.2434 45.4705L68.9015 45.591L71.9464 28.9686L71.2883 28.8481ZM67.6594 45.8737L51.037 42.8288L50.9164 43.4869L67.5388 46.5318L67.6594 45.8737ZM54.2627 25.2192L70.8851 28.2641L71.0057 27.6059L54.3833 24.561L54.2627 25.2192ZM50.6338 42.2448L53.6787 25.6223L53.0206 25.5018L49.9757 42.1242L50.6338 42.2448ZM54.3833 24.561C53.7472 24.4445 53.1371 24.8657 53.0206 25.5018L53.6787 25.6223C53.7286 25.3497 53.9901 25.1692 54.2627 25.2192L54.3833 24.561ZM68.2434 45.4705C68.1935 45.7431 67.932 45.9236 67.6594 45.8737L67.5388 46.5318C68.1749 46.6483 68.785 46.2271 68.9015 45.591L68.2434 45.4705ZM71.9464 28.9686C72.0629 28.3325 71.6418 27.7224 71.0057 27.6059L70.8851 28.2641C71.1577 28.314 71.3382 28.5755 71.2883 28.8481L71.9464 28.9686ZM51.037 42.8288C50.7644 42.7788 50.5839 42.5174 50.6338 42.2448L49.9757 42.1242C49.8592 42.7603 50.2804 43.3704 50.9164 43.4869L51.037 42.8288Z" fill="black"/>
<path d="M51.2206 43.3277L54.9041 48.8164C59.4647 49.6309 68.9366 51.3243 70.3399 51.5814C71.7433 51.8385 72.3481 51.199 72.475 50.8472L75.4889 34.3941L71.6512 29.0647L68.7814 44.7314C68.5243 46.1348 67.5325 46.3157 67.0688 46.2307L51.2206 43.3277Z" fill="black" stroke="black" stroke-width="0.0826383"/>
<g clip-path="url(#clip1_6_1534)">
<path d="M42.7253 150.033C47.8294 148.84 51.6716 144.477 53.7659 138.409C55.8604 132.34 56.2112 124.555 54.3263 116.49C52.4415 108.426 48.6763 101.602 44.1086 97.0901C39.5418 92.5788 34.1636 90.3707 29.0595 91.5636C23.9554 92.7566 20.1131 97.1198 18.0189 103.188C15.9244 109.257 15.5736 117.042 17.4585 125.107C19.3433 133.171 23.1085 139.995 27.6762 144.507C32.243 149.018 37.6211 151.226 42.7253 150.033Z" fill="#231F20" stroke="#231F20" stroke-width="0.148792"/>
<path d="M89.6446 111.443C77.2687 111.443 65.1796 110.477 53.5872 108.559C28.7654 104.45 19.6284 99.9611 19.4886 99.8892L19.7976 99.2888C19.9364 99.3601 29.0026 103.809 53.7311 107.898C68.2542 110.299 83.5637 111.199 99.2358 110.576C118.826 109.795 139.04 106.615 159.317 101.123L159.493 101.775C139.16 107.282 118.887 110.47 99.2391 111.251C96.025 111.379 92.8242 111.443 89.6446 111.443Z" fill="#D2D2D2"/>
<path d="M17.8619 126.584L17.7031 125.928C28.9846 123.199 30.5036 120.218 38.536 112.253C44.9667 105.877 50.2923 97.8634 54.3648 88.4359C61.3045 72.3715 62.2014 57.5909 62.2098 57.4436L62.8839 57.4813C62.8757 57.6299 61.9716 72.5303 54.9846 88.7038C50.8778 98.2106 45.5035 106.295 39.0115 112.733C30.8905 120.786 29.2648 123.826 17.8619 126.584Z" fill="#D2D2D2"/>
<path d="M20.9765 134.855L20.679 134.26C29.1773 125.447 29.7042 126.133 37.8331 121.575C44.867 117.631 51.9204 115.219 58.7975 114.405C71.4599 112.906 81.4101 116.867 89.4048 120.049C95.7941 122.591 100.841 124.6 104.46 122.411C108.233 120.13 110.524 113.298 111.889 100.26C112.892 90.6786 116.548 80.5353 122.184 71.6986C128.757 61.3917 138.01 52.8251 148.943 46.9251L149.263 47.5195C138.431 53.3648 129.264 61.8516 122.753 72.0618C117.173 80.8119 113.553 90.8511 112.56 100.33C111.171 113.599 108.781 120.588 104.81 122.989C100.903 125.351 95.7186 123.288 89.155 120.676C81.2312 117.523 71.3694 113.598 58.8765 115.076C52.0882 115.879 45.119 118.263 38.1631 122.164C30.0919 126.689 29.429 126.09 20.9765 134.855Z" fill="#D2D2D2"/>
<path d="M81.1728 184.921C80.1882 184.921 79.1996 184.85 78.2157 184.705C75.0453 184.238 73.1158 183.189 72.4811 181.587C71.8847 180.083 72.461 178.211 74.1936 176.023C78.0211 171.19 86.9889 165.48 97.9402 160.68C95.0567 154.833 88.7353 149.338 79.5453 144.713C67.543 138.674 50.8371 134.095 29.8918 131.105C29.8918 131.105 19.2415 129.998 18.9678 130.094L18.7446 129.424C19.0199 129.328 29.9872 130.436 29.9872 130.436C51.0052 133.437 67.7808 138.038 79.8489 144.11C89.1843 148.808 95.615 154.418 98.5601 160.411C101.749 159.032 105.1 157.733 108.535 156.556C127.688 149.995 147.281 147.714 163.704 150.132L163.605 150.801C147.287 148.397 127.807 150.668 108.754 157.195C105.341 158.365 102.013 159.654 98.8471 161.02C98.9589 161.269 99.0652 161.519 99.1651 161.769C101.381 167.312 100.597 172.903 96.9577 177.512C93.2723 182.179 87.3011 184.921 81.1728 184.921ZM98.2277 161.289C87.3685 166.042 78.493 171.682 74.7228 176.442C73.1729 178.399 72.6146 180.092 73.1087 181.339C73.6481 182.7 75.3996 183.608 78.3141 184.037C85.1874 185.048 92.2973 182.324 96.4273 177.094C99.9105 172.682 100.66 167.329 98.5377 162.02C98.4405 161.776 98.3371 161.533 98.2277 161.289Z" fill="#D2D2D2"/>
<path d="M24.4732 140.658L23.9524 139.914C41.0596 135.607 41.8002 134.633 53.1282 128.715C63.2338 123.436 71.126 117.507 77.2557 110.59C88.6612 97.7188 92.0177 83.7009 95.5711 68.86C99.1003 54.1204 102.75 38.8789 114.937 24.6747L115.449 25.1145C103.368 39.1949 99.7381 54.3556 96.2277 69.0173C92.6542 83.9425 89.2786 98.0404 77.7611 111.038C71.5758 118.018 63.6207 123.996 53.4406 129.314C42.0652 135.256 41.6326 136.337 24.4732 140.658Z" fill="#D2D2D2"/>
<path d="M125.061 170.437C125.051 170.386 123.998 165.294 120.328 158.596C116.943 152.419 110.575 143.572 99.4595 136.507C89.681 130.292 77.7889 126.394 64.1133 124.922C47.5237 123.136 39.7299 122.125 18.0751 127.416L17.9263 126.821C39.663 121.509 47.5286 122.456 64.1986 124.252C77.9796 125.737 89.97 129.672 99.8366 135.947C111.078 143.096 117.515 152.049 120.936 158.301C124.647 165.081 125.713 170.253 125.723 170.304L125.061 170.437Z" fill="#D2D2D2"/>
</g>
<path d="M149.369 49.4812V59.8027H149.934V49.4812C149.841 49.4928 149.747 49.4995 149.651 49.4995C149.556 49.4995 149.462 49.4928 149.369 49.4812Z" fill="#231F20"/>
<path d="M149.934 45.0396V34.7181H149.369V45.0396C149.462 45.028 149.556 45.0213 149.651 45.0213C149.747 45.0213 149.841 45.028 149.934 45.0396V45.0396Z" fill="#231F20"/>
<path d="M151.872 47.5426H162.194V46.978H151.872C151.884 47.0706 151.891 47.1646 151.891 47.2603C151.891 47.356 151.884 47.4502 151.872 47.5426V47.5426Z" fill="#231F20"/>
<path d="M147.431 46.9782H137.109V47.5427H147.431C147.419 47.4502 147.412 47.3562 147.412 47.2605C147.412 47.1648 147.419 47.0706 147.431 46.9782V46.9782Z" fill="#231F20"/>
<path d="M148.281 45.4905L140.982 38.192L140.583 38.5912L147.881 45.8897C147.997 45.7403 148.131 45.6063 148.281 45.4905Z" fill="#231F20"/>
<path d="M151.022 49.0303L158.321 56.3287L158.72 55.9296L151.421 48.6311C151.306 48.7805 151.171 48.9145 151.022 49.0303V49.0303Z" fill="#231F20"/>
<path d="M151.421 45.8897L158.72 38.5912L158.321 38.192L151.022 45.4905C151.171 45.6063 151.306 45.7403 151.421 45.8897V45.8897Z" fill="#231F20"/>
<path d="M147.881 48.6311L140.583 55.9296L140.982 56.3287L148.281 49.0303C148.131 48.9145 147.997 48.7805 147.881 48.6311V48.6311Z" fill="#231F20"/>
<circle cx="149.831" cy="47.1422" r="2.30628" fill="white"/>
<path d="M161.243 62.61L165.505 66.7946C172.577 73.737 184.526 70.156 186.613 60.4689C193.915 65.9333 204.371 63.5873 208.638 55.5272L210.413 52.1735C213.087 60.9067 223.603 64.3589 230.933 58.91L231.033 58.8357L233.932 61.4029C238.742 65.6635 245.92 65.8462 250.941 61.8358L253.924 59.4533L255.926 63.5302C258.673 69.1227 264.251 72.7717 270.476 73.0472L277.249 73.347C268.375 80.6098 269.569 94.52 279.551 100.164L280.288 100.581L270.741 98.9661C256.739 96.5969 243.449 105.97 240.981 119.954C234.855 112.634 223.431 113.191 218.046 121.072L217.075 122.494L215.756 120.596C210.813 113.485 200.164 113.891 195.778 121.358C187.725 115.554 176.871 115.518 168.78 121.27L166.884 122.617C166.483 110.537 158.452 100.046 146.895 96.5055L141.87 94.966C155.433 92.7204 164.492 79.753 161.932 66.2456L161.243 62.61Z" fill="#26C2A0"/>
<path d="M249.053 58.8521L243.884 45.4382L213.142 40.2382L243.889 35.0435L249.053 21.6243L254.225 35.0661L267.667 40.2385L254.225 45.411L249.053 58.8521ZM215.451 40.2383L244.164 45.0952L249.052 57.7809L253.927 45.1128L266.595 40.2382L253.927 35.3638L249.052 22.696L244.169 35.3863L244.061 35.4046L215.451 40.2383Z" fill="#26C2A0"/>
<path d="M264.747 102.765H167.049C165.472 102.765 164.193 101.487 164.193 99.9096V81.9566C164.193 80.3796 165.472 79.101 167.049 79.101H264.747C266.325 79.101 267.603 80.3794 267.603 81.9566V99.9096C267.603 101.487 266.325 102.765 264.747 102.765Z" fill="white"/>
<path d="M250.473 96.1716C249.916 94.6567 251.389 93.1843 252.903 93.7413L264.766 98.1018L276.557 102.436C278.084 102.998 278.239 105.095 276.812 105.875L267.627 110.895L262.607 120.08C261.827 121.507 259.73 121.352 259.168 119.825L254.834 108.034L250.473 96.1716Z" fill="#231F20"/>
</g>
<defs>
<clipPath id="clip0_6_1534">
<rect width="290.294" height="200.721" fill="white" transform="translate(0.368774 0.495789)"/>
</clipPath>
<clipPath id="clip1_6_1534">
<rect width="167.243" height="166.35" fill="white" transform="translate(0.368774 18.4997)"/>
</clipPath>
</defs>
</svg>
