<svg xmlns="http://www.w3.org/2000/svg" viewBox="0 0 163.03 63.48"><defs><style>.cls-1{fill:red}</style></defs><g id="Layer_2" data-name="Layer 2"><g id="Layer_1-2" data-name="Layer 1"><path class="cls-1" d="M32.41 38.07h3.82V27.72l4.62-13.96h-3.72l-2.6 8.93h-.07l-2.61-8.93h-4.06l4.62 13.96v10.35zM47.48 38.42a5.6 5.6 0 0 0 4.31-1.6 6.37 6.37 0 0 0 1.49-4.51V19.53A6.4 6.4 0 0 0 51.79 15a5.64 5.64 0 0 0-4.31-1.6 5.61 5.61 0 0 0-4.3 1.6 6.36 6.36 0 0 0-1.5 4.52v12.79a6.33 6.33 0 0 0 1.5 4.51 5.58 5.58 0 0 0 4.3 1.6Zm-2-19.14c0-1.59.66-2.39 2-2.39s2 .8 2 2.39v13.27q0 2.4-2 2.4t-2-2.4ZM61.41 38.42a5.51 5.51 0 0 0 4.24-1.58 6.47 6.47 0 0 0 1.45-4.53V13.76h-3.68v18.82a2.63 2.63 0 0 1-.5 1.81 1.86 1.86 0 0 1-1.44.56 1.83 1.83 0 0 1-1.48-.56 2.63 2.63 0 0 1-.51-1.81V13.76h-3.78v18.55a6.48 6.48 0 0 0 1.46 4.53 5.5 5.5 0 0 0 4.24 1.58ZM73.63 27.65H75a2.28 2.28 0 0 1 1.86.66 3.78 3.78 0 0 1 .54 2.33v4.44a15.85 15.85 0 0 0 .02 1.92 5 5 0 0 0 .28 1.11h3.89a4 4 0 0 1-.35-1.27 15.19 15.19 0 0 1-.07-1.68v-4.31a8.61 8.61 0 0 0-.57-3.44 3 3 0 0 0-2-1.7v-.07q2.5-1 2.5-4.79v-1.5a5.81 5.81 0 0 0-1.35-4.22 5.87 5.87 0 0 0-4.31-1.37h-5.63v24.31h3.82Zm0-10.42h1.74a1.8 1.8 0 0 1 1.48.59 3.12 3.12 0 0 1 .46 1.91v1.88a2.79 2.79 0 0 1-.57 2 2.3 2.3 0 0 1-1.72.59h-1.39ZM88.78 38.42a5.52 5.52 0 0 0 4.28-1.6 6.47 6.47 0 0 0 1.48-4.58 8.46 8.46 0 0 0-.9-4 14.48 14.48 0 0 0-3.3-3.78 14 14 0 0 1-2.59-2.78 4.63 4.63 0 0 1-.75-2.47c0-1.55.64-2.32 1.91-2.32a1.76 1.76 0 0 1 1.42.57 2.75 2.75 0 0 1 .49 1.82v1.25h3.61v-1A6.62 6.62 0 0 0 93.06 15a5.27 5.27 0 0 0-4.15-1.58A5.48 5.48 0 0 0 84.68 15a6.34 6.34 0 0 0-1.46 4.47 7.62 7.62 0 0 0 .94 3.8 15.23 15.23 0 0 0 3.3 3.73A13.2 13.2 0 0 1 90 29.82a5.2 5.2 0 0 1 .69 2.69 2.82 2.82 0 0 1-.5 1.86 1.88 1.88 0 0 1-1.48.58q-2 0-2-2.37v-1.66h-3.56v1.39a6.56 6.56 0 0 0 1.42 4.53 5.39 5.39 0 0 0 4.21 1.58ZM99.71 38.07h3.82V17.23h4v-3.47H95.72v3.47h3.99v20.84zM114.75 38.42a5.6 5.6 0 0 0 4.31-1.6 6.37 6.37 0 0 0 1.49-4.51V19.53a6.4 6.4 0 0 0-1.49-4.53 6.59 6.59 0 0 0-8.61 0 6.36 6.36 0 0 0-1.5 4.52v12.79a6.33 6.33 0 0 0 1.5 4.51 5.58 5.58 0 0 0 4.3 1.6Zm-2-19.14c0-1.59.66-2.39 2-2.39s2 .8 2 2.39v13.27q0 2.4-2 2.4t-2-2.4ZM126.94 27.65h1.32a2.28 2.28 0 0 1 1.86.66 3.78 3.78 0 0 1 .54 2.33v4.44a15.85 15.85 0 0 0 .07 1.88 5 5 0 0 0 .28 1.11h3.88a4.21 4.21 0 0 1-.34-1.27 15.19 15.19 0 0 1-.07-1.68v-4.27a8.61 8.61 0 0 0-.57-3.44 3 3 0 0 0-2-1.7v-.07q2.51-1 2.5-4.79v-1.5a5.81 5.81 0 0 0-1.35-4.22 5.87 5.87 0 0 0-4.31-1.37h-5.66v24.31h3.82Zm0-10.42h1.74a1.77 1.77 0 0 1 1.47.59 3 3 0 0 1 .47 1.91v1.88a2.79 2.79 0 0 1-.57 2 2.3 2.3 0 0 1-1.72.59h-1.39ZM140.07 38.07h3.82V27.72l4.62-13.96h-3.72l-2.6 8.93h-.07l-2.61-8.93h-4.06l4.62 13.96v10.35z"/><path class="cls-1" d="M159 0H13.09v51.53H163V0h-4Zm0 47.54H17V4h142Z"/><path class="cls-1" d="M147.62 50.9a3.81 3.81 0 0 1-1.67-.41v9H4V15.94h11.12a4.13 4.13 0 0 1 .45-4H0v51.54h149.94v-13a6.82 6.82 0 0 1-2.32.42Z"/><path class="cls-1" d="M17.81 49.02 3.12 62.61.3 59.79 14.99 46.2l2.82 2.82zM15.9 2.83l-13 11.96-2.82-2.82 13-11.96 2.82 2.82z"/></g></g></svg>