<svg width="64" height="64" viewBox="0 0 64 64" fill="none" xmlns="http://www.w3.org/2000/svg">
<path d="M41.9122 6.58801C41.9894 6.33692 42.0164 6.07308 41.9916 5.81156C41.9669 5.55003 41.8909 5.29594 41.7679 5.0638C41.645 4.83165 41.4775 4.62599 41.2751 4.45857C41.0727 4.29114 40.8392 4.16522 40.5882 4.08801C40.3371 4.01079 40.0732 3.98378 39.8117 4.00853C39.5502 4.03328 39.2961 4.10929 39.0639 4.23224C38.8318 4.35518 38.6261 4.52265 38.4587 4.72507C38.2913 4.9275 38.1654 5.16092 38.0882 5.41201L22.0882 57.412C21.9322 57.9191 21.9841 58.4674 22.2324 58.9362C22.4807 59.4051 22.9051 59.7561 23.4122 59.912C23.9193 60.068 24.4675 60.0161 24.9364 59.7678C25.4052 59.5195 25.7562 59.0951 25.9122 58.588L41.9122 6.58801ZM19.4162 16.584C19.6024 16.7698 19.7502 16.9905 19.851 17.2335C19.9518 17.4765 20.0037 17.7369 20.0037 18C20.0037 18.2631 19.9518 18.5236 19.851 18.7665C19.7502 19.0095 19.6024 19.2302 19.4162 19.416L6.82816 32L19.4162 44.584C19.7917 44.9596 20.0027 45.4689 20.0027 46C20.0027 46.5311 19.7917 47.0405 19.4162 47.416C19.0406 47.7916 18.5313 48.0025 18.0002 48.0025C17.4691 48.0025 16.9597 47.7916 16.5842 47.416L2.58416 33.416C2.3979 33.2302 2.25013 33.0095 2.14931 32.7665C2.04848 32.5236 1.99658 32.2631 1.99658 32C1.99658 31.7369 2.04848 31.4765 2.14931 31.2335C2.25013 30.9905 2.3979 30.7698 2.58416 30.584L16.5842 16.584C16.7699 16.3978 16.9906 16.25 17.2336 16.1492C17.4766 16.0483 17.7371 15.9964 18.0002 15.9964C18.2632 15.9964 18.5237 16.0483 18.7667 16.1492C19.0097 16.25 19.2304 16.3978 19.4162 16.584ZM44.5842 16.584C44.3979 16.7698 44.2501 16.9905 44.1493 17.2335C44.0485 17.4765 43.9966 17.7369 43.9966 18C43.9966 18.2631 44.0485 18.5236 44.1493 18.7665C44.2501 19.0095 44.3979 19.2302 44.5842 19.416L57.1722 32L44.5842 44.584C44.3982 44.77 44.2507 44.9907 44.1501 45.2337C44.0494 45.4766 43.9976 45.737 43.9976 46C43.9976 46.263 44.0494 46.5234 44.1501 46.7663C44.2507 47.0093 44.3982 47.2301 44.5842 47.416C44.7701 47.602 44.9909 47.7495 45.2338 47.8501C45.4768 47.9507 45.7372 48.0025 46.0002 48.0025C46.2631 48.0025 46.5235 47.9507 46.7665 47.8501C47.0094 47.7495 47.2302 47.602 47.4162 47.416L61.4162 33.416C61.6024 33.2302 61.7502 33.0095 61.851 32.7665C61.9518 32.5236 62.0037 32.2631 62.0037 32C62.0037 31.7369 61.9518 31.4765 61.851 31.2335C61.7502 30.9905 61.6024 30.7698 61.4162 30.584L47.4162 16.584C47.2304 16.3978 47.0097 16.25 46.7667 16.1492C46.5237 16.0483 46.2632 15.9964 46.0002 15.9964C45.7371 15.9964 45.4766 16.0483 45.2336 16.1492C44.9906 16.25 44.7699 16.3978 44.5842 16.584Z" fill="#161A2A"/>
</svg>
