<svg width="64" height="64" viewBox="0 0 64 64" fill="none" xmlns="http://www.w3.org/2000/svg">
<path d="M54 12C54.5304 12 55.0391 12.2107 55.4142 12.5858C55.7893 12.9609 56 13.4696 56 14V44H8V14C8 13.4696 8.21071 12.9609 8.58579 12.5858C8.96086 12.2107 9.46957 12 10 12H54ZM10 8C8.4087 8 6.88258 8.63214 5.75736 9.75736C4.63214 10.8826 4 12.4087 4 14V48H60V14C60 12.4087 59.3679 10.8826 58.2426 9.75736C57.1174 8.63214 55.5913 8 54 8H10ZM0 50H64C64 51.5913 63.3679 53.1174 62.2426 54.2426C61.1174 55.3679 59.5913 56 58 56H6C4.4087 56 2.88258 55.3679 1.75736 54.2426C0.632141 53.1174 0 51.5913 0 50Z" fill="#161A2A"/>
</svg>
