<svg width="48" height="48" viewBox="0 0 48 48" fill="none" xmlns="http://www.w3.org/2000/svg">
<path fill-rule="evenodd" clip-rule="evenodd" d="M14.208 5.90396L11.532 15.711L11.49 15.885C6.339 16.704 3 18.018 3 19.5C3 21.984 12.402 24 24 24C35.598 24 45 21.984 45 19.5C45 18.018 41.661 16.704 36.51 15.885L36.468 15.711L33.792 5.90096C33.354 4.30196 31.698 3.35396 30.075 3.69896C28.233 4.08896 25.86 4.49996 24 4.49996C22.14 4.49996 19.767 4.09196 17.925 3.69896C16.302 3.35396 14.646 4.29896 14.208 5.90396ZM14.253 17.505C14.2628 17.4068 14.2918 17.3116 14.3384 17.2247C14.385 17.1378 14.4483 17.0609 14.5246 16.9985C14.601 16.9361 14.6889 16.8893 14.7833 16.8609C14.8778 16.8325 14.9769 16.823 15.075 16.833C17.775 17.109 20.805 17.262 24 17.262C26.9803 17.2668 29.9589 17.1236 32.925 16.833C33.1231 16.8131 33.321 16.8727 33.4752 16.9987C33.6293 17.1247 33.7271 17.3068 33.747 17.505C33.7669 17.7031 33.7073 17.901 33.5812 18.0551C33.4552 18.2093 33.2731 18.3071 33.075 18.327C30.321 18.606 27.243 18.762 24 18.762C20.757 18.762 17.679 18.606 14.925 18.327C14.8269 18.3172 14.7316 18.2882 14.6447 18.2416C14.5578 18.195 14.4809 18.1317 14.4185 18.0553C14.3561 17.979 14.3093 17.8911 14.2809 17.7966C14.2525 17.7022 14.243 17.6031 14.253 17.505ZM10.5 30H16.5C16.8978 30 17.2794 30.158 17.5607 30.4393C17.842 30.7206 18 31.1021 18 31.5V34.5C18 35.6934 17.5259 36.838 16.682 37.6819C15.8381 38.5259 14.6935 39 13.5 39C12.3065 39 11.1619 38.5259 10.318 37.6819C9.47411 36.838 9 35.6934 9 34.5V31.5C9 31.1021 9.15804 30.7206 9.43934 30.4393C9.72064 30.158 10.1022 30 10.5 30ZM6 31.5C6.002 30.972 6.087 30.472 6.255 30H6C5.60218 30 5.22064 29.8419 4.93934 29.5606C4.65804 29.2793 4.5 28.8978 4.5 28.5C4.5 28.1021 4.65804 27.7206 4.93934 27.4393C5.22064 27.158 5.60218 27 6 27H16.5C17.5957 27.0001 18.6537 27.4 19.4756 28.1246C20.2974 28.8493 20.8267 29.8489 20.964 30.936C22.9438 30.338 25.0562 30.338 27.036 30.936C27.1733 29.8489 27.7026 28.8493 28.5244 28.1246C29.3463 27.4 30.4043 27.0001 31.5 27H42C42.3978 27 42.7794 27.158 43.0607 27.4393C43.342 27.7206 43.5 28.1021 43.5 28.5C43.5 28.8978 43.342 29.2793 43.0607 29.5606C42.7794 29.8419 42.3978 30 42 30H41.745C41.913 30.472 41.998 30.972 42 31.5V34.5C42 36.4891 41.2098 38.3967 39.8033 39.8033C38.3968 41.2098 36.4891 42 34.5 42C32.5109 42 30.6032 41.2098 29.1967 39.8033C27.7902 38.3967 27 36.4891 27 34.5V34.08L26.37 33.87C24.8315 33.3576 23.1685 33.3576 21.63 33.87L21 34.08V34.5C21 36.4891 20.2098 38.3967 18.8033 39.8033C17.3968 41.2098 15.4891 42 13.5 42C11.5109 42 9.60322 41.2098 8.1967 39.8033C6.79018 38.3967 6 36.4891 6 34.5V31.5ZM31.5 30H37.5C37.8978 30 38.2794 30.158 38.5607 30.4393C38.842 30.7206 39 31.1021 39 31.5V34.5C39 35.6934 38.5259 36.838 37.682 37.6819C36.8381 38.5259 35.6935 39 34.5 39C33.3065 39 32.1619 38.5259 31.318 37.6819C30.4741 36.838 30 35.6934 30 34.5V31.5C30 31.1021 30.158 30.7206 30.4393 30.4393C30.7206 30.158 31.1022 30 31.5 30Z" fill="#161A2A"/>
</svg>
