<svg width="48" height="48" viewBox="0 0 48 48" fill="none" xmlns="http://www.w3.org/2000/svg">
<path fill-rule="evenodd" clip-rule="evenodd" d="M3.342 24.189V23.7C6.357 23.394 7.833 21.855 7.833 18.9V13.509C7.833 10.227 9.003 8.895 11.895 8.895H12.714V6H11.586C6.75 6 4.47 8.277 4.47 13.056V17.628C4.47 20.91 3.342 21.996 0 21.996V25.893C3.342 25.893 4.47 26.979 4.47 30.261V34.833C4.47 39.612 6.747 41.889 11.586 41.889H12.714V38.997H11.895C9.003 38.997 7.833 37.665 7.833 34.383V28.989C7.833 26.037 6.357 24.498 3.342 24.189ZM44.658 23.7V24.192C41.643 24.501 40.167 26.04 40.167 28.992V34.386C40.167 37.668 38.997 39 36.105 39H35.286V41.892H36.414C41.253 41.892 43.53 39.615 43.53 34.836V30.264C43.53 26.982 44.658 25.896 48 25.896V21.996C44.658 21.996 43.53 20.91 43.53 17.628V13.056C43.53 8.277 41.25 6 36.414 6H35.286V8.892H36.105C38.997 8.892 40.167 10.224 40.167 13.506V18.9C40.167 21.852 41.643 23.391 44.658 23.7ZM22.5 34.5V27.621L17.637 32.484L15.516 30.363L20.376 25.5H13.5V22.5H20.379L15.516 17.637L17.637 15.516L22.5 20.376V13.5H25.5V20.379L30.363 15.516L32.484 17.637L27.624 22.5H34.5V25.5H27.621L32.484 30.363L30.363 32.484L25.5 27.624V34.5H22.5Z" fill="#08302B"/>
</svg>
