<svg width="48" height="48" viewBox="0 0 48 48" fill="none" xmlns="http://www.w3.org/2000/svg">
<g clip-path="url(#clip0_236_12)">
<path d="M23.256 0.197516C23.4826 0.0680805 23.739 0 24 0C24.261 0 24.5174 0.0680805 24.744 0.197516L35.994 6.62652C36.2236 6.75766 36.4144 6.94715 36.5472 7.1758C36.6799 7.40444 36.7499 7.66412 36.75 7.92852V19.9135L47.244 25.9135C47.4727 26.0441 47.663 26.2327 47.7957 26.4602C47.9284 26.6877 47.9989 26.9461 48 27.2095V40.0675C47.9999 40.3319 47.9299 40.5916 47.7972 40.8202C47.6644 41.0489 47.4736 41.2384 47.244 41.3695L35.994 47.7985C35.7674 47.9279 35.511 47.996 35.25 47.996C34.989 47.996 34.7326 47.9279 34.506 47.7985L24 41.7985L13.494 47.8015C13.2674 47.931 13.011 47.999 12.75 47.999C12.489 47.999 12.2326 47.931 12.006 47.8015L0.756 41.3725C0.526419 41.2414 0.335579 41.0519 0.202817 40.8232C0.0700538 40.5946 8.52811e-05 40.3349 0 40.0705L0 27.2125C8.52811e-05 26.9481 0.0700538 26.6884 0.202817 26.4598C0.335579 26.2311 0.526419 26.0417 0.756 25.9105L11.25 19.9135V7.92852C11.2501 7.66412 11.3201 7.40444 11.4528 7.1758C11.5856 6.94715 11.7764 6.75766 12.006 6.62652L23.256 0.197516ZM12.75 22.5115L4.524 27.2125L12.75 31.9135L20.976 27.2125L12.75 22.5115ZM22.5 29.7985L14.25 34.5115V43.9135L22.5 39.2005V29.7985ZM25.5 39.2005L33.75 43.9135V34.5115L25.5 29.7985V39.2005ZM27.024 27.2125L35.25 31.9135L43.476 27.2125L35.25 22.5115L27.024 27.2125ZM33.75 19.9135V10.5115L25.5 15.2275V24.6295L33.75 19.9135ZM22.5 24.6295V15.2275L14.25 10.5115V19.9135L22.5 24.6295ZM15.774 7.92852L24 12.6295L32.226 7.92852L24 3.22752L15.774 7.92852ZM45 29.7985L36.75 34.5115V43.9135L45 39.2005V29.7985ZM11.25 43.9135V34.5115L3 29.7985V39.2005L11.25 43.9135Z" fill="#08302B"/>
</g>
<defs>
<clipPath id="clip0_236_12">
<rect width="48" height="48" fill="white"/>
</clipPath>
</defs>
</svg>
