<svg width="48" height="48" viewBox="0 0 48 48" fill="none" xmlns="http://www.w3.org/2000/svg">
<path d="M34.6018 21H46.3978C46.5403 21.0001 46.6798 21.0407 46.8001 21.1172C46.9203 21.1937 47.0163 21.3029 47.0767 21.4319C47.1371 21.561 47.1596 21.7046 47.1413 21.8459C47.1231 21.9873 47.065 22.1205 46.9738 22.23L41.0758 29.31C41.0054 29.3944 40.9173 29.4623 40.8178 29.5089C40.7182 29.5555 40.6097 29.5797 40.4998 29.5797C40.3899 29.5797 40.2813 29.5555 40.1818 29.5089C40.0822 29.4623 39.9942 29.3944 39.9238 29.31L34.0258 22.23C33.9346 22.1205 33.8764 21.9873 33.8582 21.8459C33.84 21.7046 33.8624 21.561 33.9228 21.4319C33.9833 21.3029 34.0792 21.1937 34.1995 21.1172C34.3197 21.0407 34.4593 21.0001 34.6018 21ZM1.60177 27H13.3978C13.5403 27 13.6798 26.9593 13.8001 26.8828C13.9203 26.8063 14.0163 26.6971 14.0767 26.5681C14.1371 26.439 14.1596 26.2954 14.1413 26.1541C14.1231 26.0127 14.065 25.8795 13.9738 25.77L8.07577 18.69C8.00538 18.6056 7.9173 18.5377 7.81777 18.4911C7.71823 18.4445 7.60967 18.4203 7.49977 18.4203C7.38987 18.4203 7.28131 18.4445 7.18177 18.4911C7.08224 18.5377 6.99416 18.6056 6.92377 18.69L1.02577 25.77C0.934563 25.8795 0.876442 26.0127 0.858213 26.1541C0.839983 26.2954 0.8624 26.439 0.922838 26.5681C0.983276 26.6971 1.07923 26.8063 1.19947 26.8828C1.31971 26.9593 1.45926 27 1.60177 27Z" fill="#08302B"/>
<path fill-rule="evenodd" clip-rule="evenodd" d="M24 9.00003C19.344 9.00003 15.18 11.121 12.429 14.454C12.3062 14.6132 12.1526 14.7461 11.9773 14.8448C11.8021 14.9435 11.6088 15.0059 11.409 15.0284C11.2092 15.0508 11.0068 15.0329 10.8141 14.9756C10.6213 14.9183 10.442 14.8228 10.2869 14.6949C10.1318 14.5669 10.004 14.409 9.91105 14.2307C9.81815 14.0523 9.76206 13.8571 9.74612 13.6567C9.73018 13.4562 9.75471 13.2546 9.81826 13.0638C9.88181 12.873 9.98307 12.6969 10.116 12.546C12.3126 9.88661 15.2268 7.91406 18.512 6.86299C21.7972 5.81193 25.3152 5.72658 28.6476 6.61709C31.9799 7.50761 34.9863 9.33652 37.3093 11.8863C39.6322 14.4361 41.1739 17.5994 41.751 21H38.7C38.0084 17.6119 36.1675 14.5668 33.4887 12.3801C30.81 10.1934 27.458 8.99932 24 9.00003ZM9.30002 27C9.86795 29.7739 11.2091 32.3305 13.1685 34.3744C15.1278 36.4184 17.6255 37.8663 20.3729 38.5509C23.1203 39.2355 26.0054 39.1288 28.6947 38.2432C31.384 37.3575 33.768 35.7291 35.571 33.546C35.6939 33.3868 35.8475 33.2539 36.0227 33.1552C36.1979 33.0566 36.3912 32.9942 36.5911 32.9717C36.7909 32.9492 36.9932 32.9672 37.186 33.0245C37.3787 33.0818 37.558 33.1772 37.7132 33.3052C37.8683 33.4332 37.9961 33.591 38.089 33.7694C38.1819 33.9477 38.238 34.1429 38.2539 34.3434C38.2699 34.5439 38.2453 34.7455 38.1818 34.9363C38.1182 35.1271 38.017 35.3032 37.884 35.454C35.6875 38.1134 32.7733 40.086 29.488 41.1371C26.2028 42.1881 22.6848 42.2735 19.3525 41.383C16.0202 40.4924 13.0137 38.6635 10.6908 36.1138C8.36784 33.564 6.82613 30.4007 6.24902 27H9.30002Z" fill="#08302B"/>
</svg>
