<svg width="48" height="48" viewBox="0 0 48 48" fill="none" xmlns="http://www.w3.org/2000/svg">
<path fill-rule="evenodd" clip-rule="evenodd" d="M24 44.799C24.1012 44.7792 24.2014 44.7541 24.3 44.724C24.528 44.656 24.822 44.538 25.182 44.37C25.902 44.031 26.823 43.5 27.861 42.771C30.4705 40.8941 32.7833 38.6359 34.722 36.072C39.303 30.081 43.143 20.979 41.481 8.508C41.4434 8.24027 41.3311 7.98855 41.1571 7.78164C40.9831 7.57472 40.7543 7.42098 40.497 7.338C38.544 6.699 35.247 5.658 31.986 4.773C28.656 3.87 25.593 3.201 24 3.201V44.799ZM15.216 1.68C18.471 0.795 21.93 0 24 0C26.07 0 29.529 0.795 32.784 1.68C36.114 2.58 39.471 3.645 41.445 4.29C42.2703 4.56255 43.002 5.0624 43.5561 5.7321C44.1101 6.40181 44.464 7.21422 44.577 8.076C46.365 21.507 42.216 31.461 37.182 38.046C35.0465 40.8622 32.5013 43.3427 29.631 45.405C28.6396 46.1203 27.5876 46.7477 26.487 47.28C25.647 47.676 24.744 48 24 48C23.256 48 22.356 47.676 21.513 47.28C20.4124 46.7477 19.3604 46.1203 18.369 45.405C15.4988 43.3427 12.9535 40.8622 10.818 38.046C5.78402 31.461 1.63502 21.507 3.42302 8.076C3.53608 7.21422 3.88995 6.40181 4.44397 5.7321C4.99799 5.0624 5.72969 4.56255 6.55502 4.29C9.42078 3.35103 12.3086 2.48078 15.216 1.68Z" fill="#08302B"/>
</svg>
