<svg xmlns="http://www.w3.org/2000/svg" width="64" height="64" fill="none"><path fill="#161A2A" d="M8 4a4 4 0 0 1 4-4h40a4 4 0 0 1 4 4v31.056a12 12 0 0 0-19.956 9.988A8.04 8.04 0 0 0 33.072 48H26a2 2 0 0 0-2 2v14H12a4 4 0 0 1-4-4V4Zm8 6v4a2 2 0 0 0 2 2h4a2 2 0 0 0 2-2v-4a2 2 0 0 0-2-2h-4a2 2 0 0 0-2 2Zm12 0v4a2 2 0 0 0 2 2h4a2 2 0 0 0 2-2v-4a2 2 0 0 0-2-2h-4a2 2 0 0 0-2 2Zm14-2a2 2 0 0 0-2 2v4a2 2 0 0 0 2 2h4a2 2 0 0 0 2-2v-4a2 2 0 0 0-2-2h-4ZM16 22v4a2 2 0 0 0 2 2h4a2 2 0 0 0 2-2v-4a2 2 0 0 0-2-2h-4a2 2 0 0 0-2 2Zm14-2a2 2 0 0 0-2 2v4a2 2 0 0 0 2 2h4a2 2 0 0 0 2-2v-4a2 2 0 0 0-2-2h-4Zm10 2v4a2 2 0 0 0 2 2h4a2 2 0 0 0 2-2v-4a2 2 0 0 0-2-2h-4a2 2 0 0 0-2 2ZM18 32a2 2 0 0 0-2 2v4a2 2 0 0 0 2 2h4a2 2 0 0 0 2-2v-4a2 2 0 0 0-2-2h-4Zm10 2v4a2 2 0 0 0 2 2h4a2 2 0 0 0 2-2v-4a2 2 0 0 0-2-2h-4a2 2 0 0 0-2 2Z"/><path fill="#161A2A" d="M36 52a4 4 0 0 1 4-4v-4a8 8 0 0 1 16 0v4a4 4 0 0 1 4 4v8a4 4 0 0 1-4 4H40a4 4 0 0 1-4-4v-8Zm12-12a4 4 0 0 0-4 4v4h8v-4a4 4 0 0 0-4-4Z"/></svg>
