<svg width="548" height="548" viewBox="0 0 548 548" fill="none" xmlns="http://www.w3.org/2000/svg">
<path d="M527.722 427.137C531.984 422.875 531.984 415.964 527.722 411.702C523.46 407.44 516.55 407.44 512.288 411.702L527.722 427.137ZM26.3162 133.786L18.5064 126.162H18.5064L26.3162 133.786ZM398.169 519.04H45.8405V540.868H398.169V519.04ZM29.4696 502.669V152.845H7.64171V502.669H29.4696ZM512.288 411.702L409.745 514.245L425.179 529.68L527.722 427.137L512.288 411.702ZM34.1259 141.409L136.9 36.1287L121.28 20.8811L18.5064 126.162L34.1259 141.409ZM45.8405 519.04C36.7991 519.04 29.4696 511.711 29.4696 502.669H7.64171C7.64171 523.766 24.7439 540.868 45.8405 540.868V519.04ZM398.169 540.868C408.3 540.868 418.016 536.844 425.179 529.68L409.745 514.245C406.674 517.315 402.51 519.04 398.169 519.04V540.868ZM29.4696 152.845C29.4696 148.572 31.1407 144.467 34.1259 141.409L18.5064 126.162C11.5409 133.297 7.64171 142.873 7.64171 152.845H29.4696Z" fill="black"/>
<path d="M150.986 424.812H503.507C518.576 424.812 530.792 412.596 530.792 397.527V45.0066C530.792 29.9375 518.576 17.7217 503.507 17.7217H150.986C135.917 17.7217 123.701 29.9375 123.701 45.0065V397.527C123.701 412.596 135.917 424.812 150.986 424.812Z" fill="white"/>
<path d="M503.507 413.898H150.986V435.726H503.507V413.898ZM134.615 397.527V45.0065H112.787V397.527H134.615ZM519.878 45.0066V397.527H541.706V45.0066H519.878ZM150.986 28.6356H503.507V6.80773H150.986V28.6356ZM541.706 45.0066C541.706 23.9099 524.603 6.80773 503.507 6.80773V28.6356C512.548 28.6356 519.878 35.9651 519.878 45.0066H541.706ZM150.986 413.898C141.945 413.898 134.615 406.569 134.615 397.527H112.787C112.787 418.624 129.889 435.726 150.986 435.726V413.898ZM503.507 435.726C524.603 435.726 541.706 418.624 541.706 397.527H519.878C519.878 406.569 512.548 413.898 503.507 413.898V435.726ZM134.615 45.0065C134.615 35.9651 141.945 28.6356 150.986 28.6356V6.80773C129.889 6.80773 112.787 23.9099 112.787 45.0065H134.615Z" fill="black"/>
<path d="M121.003 41.9863L17.208 143.085C17.6573 244.633 18.556 455.547 18.556 486.82C18.556 518.094 34.7318 528.608 42.8197 529.956H409.471L509.221 426.161H160.094C128.821 426.161 121.003 405.492 121.003 395.158V41.9863Z" fill="black" stroke="black" stroke-width="2.69596"/>
<path d="M453.755 136.722C453.755 133.924 452.644 131.24 450.665 129.262C448.687 127.284 446.003 126.172 443.205 126.172C384.517 126.172 334.234 86.6734 333.74 86.2828C331.868 84.7874 329.546 83.9727 327.151 83.9727C324.756 83.9727 322.432 84.7875 320.562 86.2828C320.065 86.6831 270.016 126.172 211.108 126.172C208.311 126.172 205.626 127.284 203.648 129.262C201.67 131.24 200.559 133.924 200.559 136.722V231.671C200.559 265.246 213.897 297.447 237.639 321.188C261.381 344.93 293.581 358.268 327.156 358.268C360.73 358.268 392.932 344.93 416.673 321.188C440.415 297.446 453.753 265.245 453.753 231.671L453.755 136.722ZM432.655 231.671C432.655 259.651 421.54 286.485 401.755 306.267C381.971 326.053 355.137 337.168 327.158 337.168C299.179 337.168 272.343 326.053 252.562 306.267C232.776 286.484 221.661 259.65 221.661 231.671V146.916C259.635 143.165 295.986 129.624 327.159 107.618C358.333 129.624 394.684 143.165 432.658 146.916L432.655 231.671Z" fill="black" stroke="white" stroke-width="2.56792"/>
<path d="M318.244 253.658C318.244 258.683 322.315 262.756 327.34 262.756C332.365 262.756 336.438 258.682 336.438 253.658V246.473C338.36 244.155 339.332 241.193 339.145 238.188C338.962 235.18 337.636 232.358 335.444 230.295C333.25 228.233 330.351 227.084 327.34 227.084C324.329 227.084 321.429 228.233 319.238 230.295C317.043 232.358 315.72 235.18 315.534 238.188C315.35 241.193 316.319 244.155 318.244 246.473L318.244 253.658Z" fill="black"/>
<path d="M365.804 203.641H361V190.294C361 178.262 354.58 167.144 344.161 161.127C333.742 155.111 320.902 155.111 310.482 161.127C300.063 167.143 293.643 178.261 293.643 190.294V203.641H288.839C285.573 203.641 282.439 204.938 280.127 207.25C277.815 209.559 276.518 212.693 276.518 215.962V273.87C276.518 277.136 277.815 280.27 280.127 282.582C282.439 284.891 285.573 286.192 288.839 286.192H365.807C369.073 286.192 372.207 284.891 374.519 282.582C376.831 280.27 378.129 277.136 378.129 273.87V216.085C378.16 212.796 376.877 209.631 374.562 207.293C372.247 204.956 369.096 203.641 365.807 203.641L365.804 203.641ZM308.635 190.294C308.939 183.834 312.56 177.99 318.212 174.841C323.864 171.696 330.74 171.696 336.392 174.841C342.041 177.99 345.665 183.834 345.969 190.294V203.641H308.636L308.635 190.294ZM363.257 271.325H291.386V218.633H363.257V271.325Z" fill="black"/>
</svg>
