<svg width="548" height="548" viewBox="0 0 548 548" fill="none" xmlns="http://www.w3.org/2000/svg">
<path d="M527.722 427.136C531.984 422.874 531.984 415.963 527.722 411.701C523.46 407.439 516.55 407.439 512.288 411.701L527.722 427.136ZM26.3162 133.785L18.5064 126.161H18.5064L26.3162 133.785ZM398.169 519.039H45.8405V540.867H398.169V519.039ZM29.4696 502.668V152.844H7.64171V502.668H29.4696ZM512.288 411.701L409.745 514.244L425.179 529.679L527.722 427.136L512.288 411.701ZM34.1259 141.408L136.9 36.1277L121.28 20.8801L18.5064 126.161L34.1259 141.408ZM45.8405 519.039C36.7991 519.039 29.4696 511.71 29.4696 502.668H7.64171C7.64171 523.765 24.7439 540.867 45.8405 540.867V519.039ZM398.169 540.867C408.3 540.867 418.016 536.843 425.179 529.679L409.745 514.244C406.674 517.314 402.51 519.039 398.169 519.039V540.867ZM29.4696 152.844C29.4696 148.571 31.1407 144.466 34.1259 141.408L18.5064 126.161C11.5409 133.296 7.64171 142.872 7.64171 152.844H29.4696Z" fill="black"/>
<path d="M150.986 424.811H503.507C518.576 424.811 530.792 412.595 530.792 397.526V45.0056C530.792 29.9366 518.576 17.7207 503.507 17.7207H150.986C135.917 17.7207 123.701 29.9365 123.701 45.0056V397.526C123.701 412.595 135.917 424.811 150.986 424.811Z" fill="white"/>
<path d="M503.507 413.897H150.986V435.725H503.507V413.897ZM134.615 397.526V45.0056H112.787V397.526H134.615ZM519.878 45.0056V397.526H541.706V45.0056H519.878ZM150.986 28.6347H503.507V6.80675H150.986V28.6347ZM541.706 45.0056C541.706 23.909 524.603 6.80675 503.507 6.80675V28.6347C512.548 28.6347 519.878 35.9642 519.878 45.0056H541.706ZM150.986 413.897C141.945 413.897 134.615 406.568 134.615 397.526H112.787C112.787 418.623 129.889 435.725 150.986 435.725V413.897ZM503.507 435.725C524.603 435.725 541.706 418.623 541.706 397.526H519.878C519.878 406.568 512.548 413.897 503.507 413.897V435.725ZM134.615 45.0056C134.615 35.9642 141.945 28.6347 150.986 28.6347V6.80675C129.889 6.80675 112.787 23.9089 112.787 45.0056H134.615Z" fill="black"/>
<path d="M121.003 41.9844L17.208 143.083C17.6573 244.631 18.556 455.545 18.556 486.818C18.556 518.092 34.7318 528.606 42.8197 529.954H409.471L509.221 426.159H160.094C128.821 426.159 121.003 405.49 121.003 395.156V41.9844Z" fill="black" stroke="black" stroke-width="2.69596"/>
<path d="M454.542 161.209H411.656V157.687C411.656 127.498 395.553 99.6014 369.407 84.5102C343.263 69.4159 311.051 69.4159 284.906 84.5102C258.76 99.6046 242.657 127.502 242.657 157.687V161.209H199.771C194.808 161.216 190.048 163.193 186.538 166.705C183.026 170.215 181.049 174.974 181.042 179.938V346.688C181.049 351.651 183.026 356.411 186.538 359.92C190.048 363.432 194.807 365.409 199.771 365.417H454.542C459.505 365.409 464.265 363.432 467.774 359.92C471.286 356.411 473.263 351.651 473.271 346.688V179.938C473.263 174.975 471.286 170.215 467.774 166.705C464.265 163.193 459.505 161.216 454.542 161.209ZM327.156 83.7505C346.767 83.7505 365.573 91.541 379.438 105.407C393.304 119.273 401.095 138.078 401.095 157.689C401.112 175.182 394.866 192.106 383.491 205.396C375.983 191.92 363.905 181.57 349.436 176.219C334.968 170.87 319.064 170.87 304.593 176.219C290.125 181.571 278.047 191.92 270.542 205.396C259.264 192.067 253.122 175.148 253.217 157.689C253.217 138.078 261.008 119.273 274.874 105.407C288.74 91.541 307.545 83.7505 327.156 83.7505H327.156ZM375.85 213.286C362.37 225.082 345.067 231.583 327.156 231.583C309.245 231.583 291.943 225.082 278.463 213.286C284.406 201.031 294.748 191.467 307.43 186.504C320.113 181.538 334.2 181.538 346.883 186.504C359.565 191.467 369.907 201.03 375.85 213.286ZM462.708 346.688C462.708 351.2 459.051 354.857 454.54 354.857H199.769C195.258 354.857 191.601 351.2 191.601 346.688V179.939C191.601 175.427 195.258 171.77 199.769 171.77H243.817C247.179 191.45 257.383 209.307 272.632 222.191C287.881 235.074 307.193 242.158 327.155 242.187C329.9 242.187 332.646 242.187 335.357 241.799V241.801C338.911 241.416 342.441 240.817 345.921 240.006C360.956 236.61 374.771 229.141 385.847 218.423C398.878 205.952 407.525 189.598 410.492 171.807H454.54C459.051 171.807 462.708 175.464 462.708 179.975V346.688Z" fill="black" stroke="black" stroke-width="6"/>
<path d="M327.103 159.985C334.266 159.993 341.136 157.154 346.205 152.093C351.274 147.032 354.122 140.165 354.124 133.003C354.128 125.84 351.282 118.971 346.22 113.906C341.155 108.841 334.284 105.998 327.123 106C319.96 106.002 313.092 108.852 308.031 113.921C302.97 118.988 300.13 125.861 300.139 133.023C300.147 140.171 302.99 147.024 308.045 152.08C313.1 157.135 319.954 159.979 327.102 159.985L327.103 159.985ZM327.103 114.746C331.951 114.738 336.604 116.657 340.038 120.082C343.471 123.505 345.403 128.155 345.409 133.003C345.413 137.851 343.492 142.504 340.066 145.936C336.639 149.367 331.99 151.296 327.142 151.298C322.294 151.301 317.642 149.377 314.213 145.95C310.784 142.52 308.856 137.871 308.856 133.023C308.856 128.181 310.778 123.536 314.199 120.108C317.62 116.683 322.262 114.754 327.103 114.745L327.103 114.746Z" fill="black" stroke="black" stroke-width="5"/>
<path d="M417.719 260.839H236.909C232.443 260.871 228.172 262.669 225.026 265.837C221.881 269.005 220.115 273.291 220.115 277.754V317.259C220.115 321.743 221.898 326.047 225.07 329.219C228.243 332.391 232.546 334.174 237.03 334.174H417.84C422.306 334.142 426.577 332.344 429.724 329.176C432.868 326.008 434.634 321.722 434.634 317.259V277.754C434.634 273.269 432.851 268.966 429.679 265.794C426.506 262.622 422.203 260.839 417.719 260.839ZM425.44 317.26C425.44 321.525 421.983 324.981 417.719 324.981H236.909C232.691 324.915 229.309 321.477 229.309 317.26V277.755C229.309 273.491 232.766 270.034 237.03 270.034H417.84C422.058 270.1 425.44 273.538 425.44 277.755V317.26Z" fill="black" stroke="black" stroke-width="5"/>
<path d="M288.882 292.89H287.136L288.361 291.665C289.231 290.808 289.718 289.636 289.718 288.416C289.718 287.195 289.231 286.026 288.361 285.169C286.559 283.392 283.666 283.392 281.864 285.169L280.64 286.394V284.677C280.64 282.14 278.581 280.081 276.041 280.081C273.504 280.081 271.445 282.14 271.445 284.677V286.394L270.221 285.169H270.218C268.418 283.392 265.524 283.392 263.722 285.169C262.854 286.026 262.365 287.195 262.365 288.416C262.365 289.636 262.854 290.808 263.722 291.665L264.947 292.89H263.2C260.663 292.89 258.604 294.949 258.604 297.488C258.604 300.026 260.663 302.084 263.2 302.084H264.947L263.722 303.341C262.854 304.198 262.365 305.37 262.365 306.59C262.365 307.811 262.854 308.98 263.722 309.837C265.518 311.631 268.425 311.631 270.218 309.837L271.443 308.613V310.329H271.445C271.445 312.867 273.504 314.925 276.041 314.925C278.581 314.925 280.64 312.867 280.64 310.329V308.613L281.864 309.837C283.66 311.631 286.567 311.631 288.361 309.837C289.231 308.98 289.718 307.811 289.718 306.59C289.718 305.37 289.231 304.198 288.361 303.341L287.136 302.084H288.882C291.422 302.084 293.478 300.026 293.478 297.488C293.478 294.949 291.422 292.89 288.882 292.89Z" fill="black" stroke="black" stroke-width="2.73622"/>
<path d="M340.212 292.89H338.466L339.691 291.665C340.559 290.808 341.048 289.636 341.048 288.416C341.048 287.195 340.559 286.026 339.691 285.169C337.889 283.392 334.997 283.392 333.195 285.169L331.97 286.394V284.677H331.967C331.967 282.14 329.911 280.081 327.371 280.081C324.832 280.081 322.776 282.14 322.776 284.677V286.394L321.551 285.169H321.548C319.746 283.392 316.854 283.392 315.052 285.169C314.184 286.026 313.695 287.195 313.695 288.416C313.695 289.636 314.184 290.808 315.052 291.665L316.277 292.89H314.531C311.993 292.89 309.935 294.949 309.935 297.488C309.935 300.026 311.993 302.084 314.531 302.084H316.277L315.114 303.249C314.244 304.106 313.757 305.278 313.757 306.498C313.757 307.719 314.244 308.888 315.114 309.746C316.908 311.539 319.815 311.539 321.61 309.746L322.835 308.521V310.237C322.835 312.775 324.894 314.833 327.433 314.833C329.971 314.833 332.029 312.775 332.029 310.237V308.521L333.254 309.746H333.257C335.05 311.539 337.957 311.539 339.753 309.746C340.606 308.871 341.072 307.693 341.048 306.473C341.025 305.252 340.514 304.091 339.629 303.249L338.404 301.992H340.15C342.69 301.992 344.749 299.934 344.749 297.396C344.749 294.857 342.69 292.798 340.15 292.798L340.212 292.89Z" fill="black" stroke="black" stroke-width="2.73622"/>
<path d="M391.55 292.89H389.804L391.029 291.665C391.897 290.808 392.386 289.636 392.386 288.416C392.386 287.195 391.897 286.026 391.029 285.169C389.227 283.392 386.332 283.392 384.532 285.169L383.308 286.394V284.677H383.305C383.305 282.14 381.247 280.081 378.709 280.081C376.17 280.081 374.111 282.14 374.111 284.677V286.394L372.886 285.169C371.084 283.392 368.192 283.392 366.39 285.169C365.52 286.026 365.033 287.195 365.033 288.416C365.033 289.636 365.52 290.808 366.39 291.665L367.615 292.89H365.868C363.329 292.89 361.272 294.949 361.272 297.488C361.272 300.026 363.329 302.084 365.868 302.084H367.615L366.39 303.341C365.52 304.198 365.033 305.37 365.033 306.59C365.033 307.811 365.52 308.98 366.39 309.837C368.184 311.631 371.091 311.631 372.886 309.837L374.111 308.613V310.329C374.111 312.867 376.17 314.925 378.709 314.925C381.247 314.925 383.305 312.867 383.305 310.329V308.613L384.53 309.837H384.532C386.326 311.631 389.233 311.631 391.029 309.837C391.897 308.98 392.386 307.811 392.386 306.59C392.386 305.37 391.897 304.198 391.029 303.341L389.804 302.084H391.55C394.088 302.084 396.146 300.026 396.146 297.488C396.146 294.949 394.088 292.89 391.55 292.89Z" fill="black" stroke="black" stroke-width="2.73622"/>
</svg>
