<?xml version="1.0" encoding="utf-8"?>
<!-- Generator: Adobe Illustrator 23.0.2, SVG Export Plug-In . SVG Version: 6.00 Build 0)  -->
<svg version="1.1" id="Layer_1" xmlns="http://www.w3.org/2000/svg" xmlns:xlink="http://www.w3.org/1999/xlink" x="0px" y="0px"
	 viewBox="0 0 500 156.28" style="padding: .75em; enable-background:new 0 0 500 156.28;" xml:space="preserve">
<style type="text/css">
	.st0{fill:#FF5B24;}
</style>
<g>
	<g>
		<path class="st0" d="M18.31,115.05c8.32,9.15,21.01,16.02,34.33,16.02c12.48,0,21.22-7.7,21.22-18.31
			c0-18.73-27.05-21.01-46.6-32.46c-11.44-6.66-20.6-16.65-20.6-33.08c0-26.01,23.93-40.99,48.06-40.99
			c14.77,0,28.5,3.54,42.23,13.73l-14.56,20.8c-5.82-5.41-15.6-9.57-25.17-9.57c-10.61,0-22.47,4.58-22.47,15.81
			c0,23.51,67.2,16.23,67.2,65.33c0,25.8-23.09,43.69-49.31,43.69c-19.56,0-37.66-8.11-52.64-21.84L18.31,115.05z"/>
		<path class="st0" d="M214.15,153.96h-26.01v-8.11c-8.32,7.07-17.89,10.2-28.09,10.2c-14.98,0-29.13-6.66-38.07-17.06
			c-7.91-9.15-12.9-21.64-12.9-35.37c0-29.75,22.05-52.64,49.52-52.64c11.44,0,21.64,3.74,29.54,10.2v-8.11h26.01V153.96z
			 M187.1,88.42c-5.62-7.49-14.56-12.48-24.97-12.48c-15.81,0-26.01,13.11-26.01,27.67c0,15.81,11.44,27.46,26.63,27.46
			c10.2,0,19.14-4.99,24.34-12.48V88.42z"/>
		<path class="st0" d="M500,153.96h-26.01v-8.11c-8.32,7.07-17.89,10.2-28.09,10.2c-14.98,0-29.13-6.66-38.07-17.06
			c-7.9-9.15-12.9-21.64-12.9-35.37c0-29.75,22.05-52.64,49.52-52.64c11.44,0,21.64,3.74,29.54,10.2v-8.11H500V153.96z
			 M472.95,88.42c-5.62-7.49-14.56-12.48-24.96-12.48c-15.81,0-26.01,13.11-26.01,27.67c0,15.81,11.44,27.46,26.63,27.46
			c10.2,0,19.14-4.99,24.34-12.48V88.42z"/>
		<path class="st0" d="M377.46,130.04c-8.45,0-15.24-3.11-15.24-12.67V75.94h19.3V53.05h-19.3V17.34h-26.97l-0.04,105.14
			c0,21.13,13.34,33.8,34.69,33.8c8.67,0,14.01-1.56,16.68-2.67v-24.46C385.02,129.59,381.02,130.04,377.46,130.04z"/>
		<path class="st0" d="M226.8,6.27h26.97v111.09c0,9.56,6.79,12.67,15.24,12.67c3.56,0,7.56-0.44,9.12-0.89v24.46
			c-2.67,1.11-8.01,2.67-16.68,2.67c-21.35,0-34.69-12.68-34.69-33.8L226.8,6.27z"/>
		<g>
			<path class="st0" d="M318.42,153.96h-27.05V53.05h27.05V153.96z"/>
			<path class="st0" d="M304.89,0c9.78,0,17.68,7.49,17.68,17.27c0,9.78-7.9,17.27-17.68,17.27c-9.78,0-17.68-7.49-17.68-17.27
				C287.21,7.49,295.11,0,304.89,0z"/>
		</g>
	</g>
</g>
</svg>
