<svg xmlns="http://www.w3.org/2000/svg" xmlns:xlink="http://www.w3.org/1999/xlink" width="800" zoomAndPan="magnify" viewBox="0 0 600 239.999995" height="320" preserveAspectRatio="xMidYMid meet" version="1.0"><defs><g/></defs><rect x="-60" width="720" fill="#ffffff" y="-23.999999" height="287.999994" fill-opacity="1"/><rect x="-60" width="720" fill="#ffffff" y="-23.999999" height="287.999994" fill-opacity="1"/><g fill="#000000" fill-opacity="1"><g transform="translate(22.161189, 130.124992)"><g><path d="M 9.09375 0.296875 C 7.664062 0.296875 6.398438 0.125 5.296875 -0.21875 C 4.191406 -0.570312 3.269531 -1.035156 2.53125 -1.609375 C 1.789062 -2.179688 1.222656 -2.8125 0.828125 -3.5 L 3.0625 -6.21875 L 3.40625 -6.21875 C 4.019531 -5.300781 4.800781 -4.570312 5.75 -4.03125 C 6.707031 -3.488281 7.820312 -3.21875 9.09375 -3.21875 C 10.175781 -3.21875 10.992188 -3.445312 11.546875 -3.90625 C 12.097656 -4.363281 12.375 -4.992188 12.375 -5.796875 C 12.375 -6.285156 12.285156 -6.691406 12.109375 -7.015625 C 11.929688 -7.335938 11.632812 -7.613281 11.21875 -7.84375 C 10.8125 -8.082031 10.257812 -8.285156 9.5625 -8.453125 L 6.921875 -9.0625 C 5.078125 -9.476562 3.703125 -10.175781 2.796875 -11.15625 C 1.890625 -12.132812 1.4375 -13.40625 1.4375 -14.96875 C 1.4375 -16.125 1.726562 -17.140625 2.3125 -18.015625 C 2.894531 -18.898438 3.738281 -19.585938 4.84375 -20.078125 C 5.957031 -20.566406 7.285156 -20.8125 8.828125 -20.8125 C 10.410156 -20.8125 11.765625 -20.601562 12.890625 -20.1875 C 14.015625 -19.769531 14.960938 -19.128906 15.734375 -18.265625 L 13.734375 -15.515625 L 13.390625 -15.515625 C 12.804688 -16.117188 12.140625 -16.570312 11.390625 -16.875 C 10.640625 -17.1875 9.785156 -17.34375 8.828125 -17.34375 C 7.710938 -17.34375 6.863281 -17.144531 6.28125 -16.75 C 5.707031 -16.351562 5.421875 -15.8125 5.421875 -15.125 C 5.421875 -14.476562 5.625 -13.960938 6.03125 -13.578125 C 6.4375 -13.191406 7.140625 -12.894531 8.140625 -12.6875 L 10.828125 -12.125 C 12.816406 -11.695312 14.257812 -10.976562 15.15625 -9.96875 C 16.0625 -8.96875 16.515625 -7.660156 16.515625 -6.046875 C 16.515625 -4.765625 16.238281 -3.648438 15.6875 -2.703125 C 15.132812 -1.753906 14.300781 -1.015625 13.1875 -0.484375 C 12.070312 0.0351562 10.707031 0.296875 9.09375 0.296875 Z M 9.09375 0.296875 "/></g></g></g><g fill="#000000" fill-opacity="1"><g transform="translate(39.783441, 130.124992)"><g><path d="M 15.296875 -6.859375 L 5.34375 -6.859375 C 5.457031 -5.515625 5.84375 -4.535156 6.5 -3.921875 C 7.15625 -3.304688 8.046875 -3 9.171875 -3 C 10.066406 -3 10.789062 -3.164062 11.34375 -3.5 C 11.894531 -3.832031 12.335938 -4.335938 12.671875 -5.015625 L 12.96875 -5.015625 L 15.546875 -3.359375 C 15.035156 -2.265625 14.269531 -1.378906 13.25 -0.703125 C 12.238281 -0.0351562 10.878906 0.296875 9.171875 0.296875 C 7.578125 0.296875 6.195312 -0.00390625 5.03125 -0.609375 C 3.863281 -1.222656 2.960938 -2.128906 2.328125 -3.328125 C 1.703125 -4.535156 1.390625 -6.003906 1.390625 -7.734375 C 1.390625 -9.492188 1.71875 -10.972656 2.375 -12.171875 C 3.039062 -13.378906 3.941406 -14.28125 5.078125 -14.875 C 6.210938 -15.46875 7.484375 -15.765625 8.890625 -15.765625 C 11.078125 -15.765625 12.753906 -15.1875 13.921875 -14.03125 C 15.085938 -12.875 15.671875 -11.171875 15.671875 -8.921875 C 15.671875 -8.109375 15.644531 -7.476562 15.59375 -7.03125 Z M 11.953125 -9.375 C 11.910156 -10.550781 11.632812 -11.40625 11.125 -11.9375 C 10.625 -12.476562 9.878906 -12.75 8.890625 -12.75 C 6.929688 -12.75 5.78125 -11.625 5.4375 -9.375 Z M 11.953125 -9.375 "/></g></g></g><g fill="#000000" fill-opacity="1"><g transform="translate(56.605957, 130.124992)"><g><path d="M 9.015625 0.296875 C 7.523438 0.296875 6.203125 -0.015625 5.046875 -0.640625 C 3.898438 -1.265625 3.003906 -2.175781 2.359375 -3.375 C 1.710938 -4.582031 1.390625 -6.035156 1.390625 -7.734375 C 1.390625 -9.429688 1.710938 -10.882812 2.359375 -12.09375 C 3.003906 -13.300781 3.894531 -14.210938 5.03125 -14.828125 C 6.175781 -15.453125 7.484375 -15.765625 8.953125 -15.765625 C 12.210938 -15.765625 14.300781 -14.582031 15.21875 -12.21875 L 12.5625 -10.3125 L 12.265625 -10.3125 C 11.941406 -11.039062 11.523438 -11.582031 11.015625 -11.9375 C 10.503906 -12.289062 9.816406 -12.46875 8.953125 -12.46875 C 7.828125 -12.46875 6.953125 -12.078125 6.328125 -11.296875 C 5.703125 -10.523438 5.390625 -9.335938 5.390625 -7.734375 C 5.390625 -6.140625 5.707031 -4.953125 6.34375 -4.171875 C 6.976562 -3.390625 7.867188 -3 9.015625 -3 C 9.859375 -3 10.570312 -3.222656 11.15625 -3.671875 C 11.738281 -4.128906 12.160156 -4.785156 12.421875 -5.640625 L 12.71875 -5.671875 L 15.46875 -4.15625 C 15.082031 -2.84375 14.359375 -1.769531 13.296875 -0.9375 C 12.234375 -0.113281 10.804688 0.296875 9.015625 0.296875 Z M 9.015625 0.296875 "/></g></g></g><g fill="#000000" fill-opacity="1"><g transform="translate(72.558585, 130.124992)"><g><path d="M 7.078125 0.296875 C 5.335938 0.296875 4.054688 -0.175781 3.234375 -1.125 C 2.410156 -2.070312 2 -3.4375 2 -5.21875 L 2 -15.46875 L 5.875 -15.46875 L 5.875 -5.703125 C 5.875 -4.765625 6.078125 -4.078125 6.484375 -3.640625 C 6.890625 -3.203125 7.519531 -2.984375 8.375 -2.984375 C 9.445312 -2.984375 10.28125 -3.335938 10.875 -4.046875 C 11.476562 -4.753906 11.78125 -5.863281 11.78125 -7.375 L 11.78125 -15.46875 L 15.671875 -15.46875 L 15.671875 0 L 11.9375 0 L 11.9375 -2.265625 L 11.640625 -2.34375 C 11.148438 -1.457031 10.546875 -0.796875 9.828125 -0.359375 C 9.109375 0.078125 8.191406 0.296875 7.078125 0.296875 Z M 7.078125 0.296875 "/></g></g></g><g fill="#000000" fill-opacity="1"><g transform="translate(90.461446, 130.124992)"><g><path d="M 2.234375 0 L 2.234375 -15.46875 L 6 -15.46875 L 6 -13.171875 L 6.296875 -13.125 C 6.671875 -13.976562 7.160156 -14.601562 7.765625 -15 C 8.378906 -15.40625 9.117188 -15.609375 9.984375 -15.609375 C 10.867188 -15.609375 11.539062 -15.460938 12 -15.171875 L 11.34375 -11.8125 L 11.046875 -11.75 C 10.785156 -11.851562 10.539062 -11.925781 10.3125 -11.96875 C 10.082031 -12.019531 9.796875 -12.046875 9.453125 -12.046875 C 8.367188 -12.046875 7.539062 -11.664062 6.96875 -10.90625 C 6.40625 -10.144531 6.125 -8.921875 6.125 -7.234375 L 6.125 0 Z M 2.234375 0 "/></g></g></g><g fill="#000000" fill-opacity="1"><g transform="translate(102.597791, 130.124992)"><g><path d="M 4.171875 -17.328125 C 3.460938 -17.328125 2.890625 -17.539062 2.453125 -17.96875 C 2.015625 -18.394531 1.796875 -18.941406 1.796875 -19.609375 C 1.796875 -20.273438 2.015625 -20.820312 2.453125 -21.25 C 2.890625 -21.675781 3.460938 -21.890625 4.171875 -21.890625 C 4.640625 -21.890625 5.054688 -21.789062 5.421875 -21.59375 C 5.785156 -21.394531 6.066406 -21.125 6.265625 -20.78125 C 6.460938 -20.445312 6.5625 -20.054688 6.5625 -19.609375 C 6.5625 -19.171875 6.460938 -18.78125 6.265625 -18.4375 C 6.066406 -18.09375 5.785156 -17.820312 5.421875 -17.625 C 5.054688 -17.425781 4.640625 -17.328125 4.171875 -17.328125 Z M 2.234375 0 L 2.234375 -15.46875 L 6.125 -15.46875 L 6.125 0 Z M 2.234375 0 "/></g></g></g><g fill="#000000" fill-opacity="1"><g transform="translate(110.931881, 130.124992)"><g><path d="M 10.671875 -3.6875 L 11.6875 -0.8125 C 11.269531 -0.46875 10.738281 -0.195312 10.09375 0 C 9.457031 0.195312 8.738281 0.296875 7.9375 0.296875 C 6.269531 0.296875 5 -0.15625 4.125 -1.0625 C 3.25 -1.976562 2.8125 -3.304688 2.8125 -5.046875 L 2.8125 -12.40625 L 0.46875 -12.40625 L 0.46875 -15.484375 L 2.8125 -15.484375 L 2.8125 -18.5 L 6.703125 -19.140625 L 6.703125 -15.484375 L 11.09375 -15.484375 L 11.09375 -12.40625 L 6.703125 -12.40625 L 6.703125 -5.328125 C 6.703125 -4.566406 6.859375 -4.007812 7.171875 -3.65625 C 7.492188 -3.300781 7.960938 -3.125 8.578125 -3.125 C 9.265625 -3.125 9.863281 -3.3125 10.375 -3.6875 Z M 10.671875 -3.6875 "/></g></g></g><g fill="#000000" fill-opacity="1"><g transform="translate(122.955982, 130.124992)"><g><path d="M 3.421875 6.5625 C 2.753906 6.5625 2.148438 6.507812 1.609375 6.40625 C 1.078125 6.300781 0.644531 6.164062 0.3125 6 L 0.921875 2.859375 L 1.171875 2.78125 C 1.410156 2.894531 1.703125 2.988281 2.046875 3.0625 C 2.390625 3.144531 2.742188 3.1875 3.109375 3.1875 C 3.742188 3.1875 4.265625 3.101562 4.671875 2.9375 C 5.085938 2.769531 5.441406 2.5 5.734375 2.125 C 6.023438 1.75 6.285156 1.222656 6.515625 0.546875 L 0.34375 -15.46875 L 4.40625 -15.46875 L 8.25 -4.71875 L 8.59375 -4.71875 L 12.328125 -15.46875 L 16.296875 -15.46875 L 10.078125 0.96875 C 9.578125 2.289062 9.03125 3.359375 8.4375 4.171875 C 7.84375 4.984375 7.140625 5.582031 6.328125 5.96875 C 5.523438 6.363281 4.554688 6.5625 3.421875 6.5625 Z M 3.421875 6.5625 "/></g></g></g><g fill="#000000" fill-opacity="1"><g transform="translate(139.568041, 130.124992)"><g/></g></g><g fill="#000000" fill-opacity="1"><g transform="translate(146.344751, 130.124992)"><g><path d="M 2.671875 0 L 2.671875 -20.515625 L 11.421875 -20.515625 C 12.679688 -20.515625 13.75 -20.3125 14.625 -19.90625 C 15.5 -19.507812 16.160156 -18.941406 16.609375 -18.203125 C 17.054688 -17.472656 17.28125 -16.609375 17.28125 -15.609375 C 17.28125 -14.703125 17.0625 -13.898438 16.625 -13.203125 C 16.1875 -12.515625 15.554688 -11.960938 14.734375 -11.546875 L 14.734375 -11.25 C 16.023438 -10.914062 17.019531 -10.300781 17.71875 -9.40625 C 18.414062 -8.519531 18.765625 -7.429688 18.765625 -6.140625 C 18.765625 -4.179688 18.171875 -2.664062 16.984375 -1.59375 C 15.804688 -0.53125 14.054688 0 11.734375 0 Z M 10.578125 -12.328125 C 12.460938 -12.328125 13.40625 -13.179688 13.40625 -14.890625 C 13.40625 -15.753906 13.171875 -16.398438 12.703125 -16.828125 C 12.242188 -17.253906 11.535156 -17.46875 10.578125 -17.46875 L 6.71875 -17.46875 L 6.71875 -12.328125 Z M 11.328125 -3.21875 C 13.554688 -3.21875 14.671875 -4.226562 14.671875 -6.25 C 14.671875 -8.289062 13.554688 -9.3125 11.328125 -9.3125 L 6.71875 -9.3125 L 6.71875 -3.21875 Z M 11.328125 -3.21875 "/></g></g></g><g fill="#000000" fill-opacity="1"><g transform="translate(166.408303, 130.124992)"><g><path d="M 7.078125 0.296875 C 5.335938 0.296875 4.054688 -0.175781 3.234375 -1.125 C 2.410156 -2.070312 2 -3.4375 2 -5.21875 L 2 -15.46875 L 5.875 -15.46875 L 5.875 -5.703125 C 5.875 -4.765625 6.078125 -4.078125 6.484375 -3.640625 C 6.890625 -3.203125 7.519531 -2.984375 8.375 -2.984375 C 9.445312 -2.984375 10.28125 -3.335938 10.875 -4.046875 C 11.476562 -4.753906 11.78125 -5.863281 11.78125 -7.375 L 11.78125 -15.46875 L 15.671875 -15.46875 L 15.671875 0 L 11.9375 0 L 11.9375 -2.265625 L 11.640625 -2.34375 C 11.148438 -1.457031 10.546875 -0.796875 9.828125 -0.359375 C 9.109375 0.078125 8.191406 0.296875 7.078125 0.296875 Z M 7.078125 0.296875 "/></g></g></g><g fill="#000000" fill-opacity="1"><g transform="translate(184.311164, 130.124992)"><g><path d="M 4.171875 -17.328125 C 3.460938 -17.328125 2.890625 -17.539062 2.453125 -17.96875 C 2.015625 -18.394531 1.796875 -18.941406 1.796875 -19.609375 C 1.796875 -20.273438 2.015625 -20.820312 2.453125 -21.25 C 2.890625 -21.675781 3.460938 -21.890625 4.171875 -21.890625 C 4.640625 -21.890625 5.054688 -21.789062 5.421875 -21.59375 C 5.785156 -21.394531 6.066406 -21.125 6.265625 -20.78125 C 6.460938 -20.445312 6.5625 -20.054688 6.5625 -19.609375 C 6.5625 -19.171875 6.460938 -18.78125 6.265625 -18.4375 C 6.066406 -18.09375 5.785156 -17.820312 5.421875 -17.625 C 5.054688 -17.425781 4.640625 -17.328125 4.171875 -17.328125 Z M 2.234375 0 L 2.234375 -15.46875 L 6.125 -15.46875 L 6.125 0 Z M 2.234375 0 "/></g></g></g><g fill="#000000" fill-opacity="1"><g transform="translate(192.645255, 130.124992)"><g><path d="M 6.421875 0.296875 C 5.023438 0.296875 3.957031 -0.078125 3.21875 -0.828125 C 2.488281 -1.585938 2.125 -2.734375 2.125 -4.265625 L 2.125 -21.6875 L 6.015625 -21.6875 L 6.015625 -4.421875 C 6.015625 -3.472656 6.410156 -3 7.203125 -3 C 7.421875 -3 7.65625 -3.035156 7.90625 -3.109375 L 8.109375 -3.0625 L 8.453125 -0.0625 C 8.242188 0.0390625 7.960938 0.125 7.609375 0.1875 C 7.253906 0.257812 6.859375 0.296875 6.421875 0.296875 Z M 6.421875 0.296875 "/></g></g></g><g fill="#000000" fill-opacity="1"><g transform="translate(201.540564, 130.124992)"><g><path d="M 7.640625 0.296875 C 6.421875 0.296875 5.335938 0 4.390625 -0.59375 C 3.453125 -1.1875 2.71875 -2.082031 2.1875 -3.28125 C 1.65625 -4.488281 1.390625 -5.972656 1.390625 -7.734375 C 1.390625 -9.492188 1.660156 -10.972656 2.203125 -12.171875 C 2.753906 -13.378906 3.515625 -14.28125 4.484375 -14.875 C 5.453125 -15.46875 6.570312 -15.765625 7.84375 -15.765625 C 8.800781 -15.765625 9.632812 -15.597656 10.34375 -15.265625 C 11.050781 -14.941406 11.648438 -14.425781 12.140625 -13.71875 L 12.4375 -13.796875 L 12.4375 -21.6875 L 16.3125 -21.6875 L 16.3125 0 L 12.4375 0 L 12.4375 -2 L 12.140625 -2.0625 C 11.703125 -1.332031 11.109375 -0.753906 10.359375 -0.328125 C 9.617188 0.0859375 8.710938 0.296875 7.640625 0.296875 Z M 8.90625 -3 C 10 -3 10.863281 -3.390625 11.5 -4.171875 C 12.132812 -4.953125 12.453125 -6.140625 12.453125 -7.734375 C 12.453125 -9.316406 12.132812 -10.5 11.5 -11.28125 C 10.863281 -12.070312 10 -12.46875 8.90625 -12.46875 C 7.769531 -12.46875 6.898438 -12.085938 6.296875 -11.328125 C 5.691406 -10.566406 5.390625 -9.367188 5.390625 -7.734375 C 5.390625 -6.109375 5.691406 -4.910156 6.296875 -4.140625 C 6.898438 -3.378906 7.769531 -3 8.90625 -3 Z M 8.90625 -3 "/></g></g></g><g fill="#000000" fill-opacity="1"><g transform="translate(220.088826, 130.124992)"><g><path d="M 4.171875 -17.328125 C 3.460938 -17.328125 2.890625 -17.539062 2.453125 -17.96875 C 2.015625 -18.394531 1.796875 -18.941406 1.796875 -19.609375 C 1.796875 -20.273438 2.015625 -20.820312 2.453125 -21.25 C 2.890625 -21.675781 3.460938 -21.890625 4.171875 -21.890625 C 4.640625 -21.890625 5.054688 -21.789062 5.421875 -21.59375 C 5.785156 -21.394531 6.066406 -21.125 6.265625 -20.78125 C 6.460938 -20.445312 6.5625 -20.054688 6.5625 -19.609375 C 6.5625 -19.171875 6.460938 -18.78125 6.265625 -18.4375 C 6.066406 -18.09375 5.785156 -17.820312 5.421875 -17.625 C 5.054688 -17.425781 4.640625 -17.328125 4.171875 -17.328125 Z M 2.234375 0 L 2.234375 -15.46875 L 6.125 -15.46875 L 6.125 0 Z M 2.234375 0 "/></g></g></g><g fill="#000000" fill-opacity="1"><g transform="translate(228.422917, 130.124992)"><g><path d="M 2.234375 0 L 2.234375 -15.46875 L 5.96875 -15.46875 L 5.96875 -13.203125 L 6.25 -13.125 C 7.21875 -14.882812 8.78125 -15.765625 10.9375 -15.765625 C 12.726562 -15.765625 14.039062 -15.28125 14.875 -14.3125 C 15.71875 -13.34375 16.140625 -11.925781 16.140625 -10.0625 L 16.140625 0 L 12.25 0 L 12.25 -9.578125 C 12.25 -10.609375 12.039062 -11.347656 11.625 -11.796875 C 11.21875 -12.253906 10.5625 -12.484375 9.65625 -12.484375 C 8.539062 -12.484375 7.671875 -12.125 7.046875 -11.40625 C 6.429688 -10.6875 6.125 -9.554688 6.125 -8.015625 L 6.125 0 Z M 2.234375 0 "/></g></g></g><g fill="#000000" fill-opacity="1"><g transform="translate(246.550265, 130.124992)"><g><path d="M 8.03125 6.5625 C 5.46875 6.5625 3.578125 6.1875 2.359375 5.4375 C 1.148438 4.695312 0.546875 3.65625 0.546875 2.3125 C 0.546875 1.5 0.804688 0.832031 1.328125 0.3125 C 1.847656 -0.207031 2.59375 -0.554688 3.5625 -0.734375 L 3.5625 -1.03125 C 3.039062 -1.34375 2.664062 -1.691406 2.4375 -2.078125 C 2.207031 -2.472656 2.09375 -2.925781 2.09375 -3.4375 C 2.09375 -4.675781 2.898438 -5.515625 4.515625 -5.953125 L 4.515625 -6.25 C 3.679688 -6.71875 3.050781 -7.304688 2.625 -8.015625 C 2.207031 -8.722656 2 -9.578125 2 -10.578125 C 2 -11.609375 2.234375 -12.515625 2.703125 -13.296875 C 3.179688 -14.078125 3.875 -14.679688 4.78125 -15.109375 C 5.695312 -15.546875 6.789062 -15.765625 8.0625 -15.765625 C 9.351562 -15.765625 10.382812 -15.539062 11.15625 -15.09375 C 11.632812 -15.789062 11.910156 -16.59375 11.984375 -17.5 L 12.28125 -17.671875 L 15.0625 -16.984375 C 14.976562 -16.242188 14.765625 -15.625 14.421875 -15.125 C 14.078125 -14.625 13.539062 -14.179688 12.8125 -13.796875 L 12.8125 -13.484375 C 13.675781 -12.710938 14.109375 -11.640625 14.109375 -10.265625 C 14.109375 -9.316406 13.867188 -8.460938 13.390625 -7.703125 C 12.921875 -6.941406 12.226562 -6.34375 11.3125 -5.90625 C 10.40625 -5.46875 9.320312 -5.25 8.0625 -5.25 L 7.484375 -5.265625 C 7.109375 -5.285156 6.84375 -5.296875 6.6875 -5.296875 C 6.332031 -5.296875 6.054688 -5.195312 5.859375 -5 C 5.660156 -4.8125 5.5625 -4.566406 5.5625 -4.265625 C 5.5625 -3.941406 5.691406 -3.6875 5.953125 -3.5 C 6.210938 -3.320312 6.59375 -3.222656 7.09375 -3.203125 L 10.5625 -3.078125 C 13.988281 -2.972656 15.703125 -1.5 15.703125 1.34375 C 15.703125 2.34375 15.445312 3.234375 14.9375 4.015625 C 14.425781 4.796875 13.597656 5.414062 12.453125 5.875 C 11.316406 6.332031 9.84375 6.5625 8.03125 6.5625 Z M 8.0625 -7.96875 C 8.8125 -7.96875 9.394531 -8.1875 9.8125 -8.625 C 10.238281 -9.0625 10.453125 -9.691406 10.453125 -10.515625 C 10.453125 -11.328125 10.238281 -11.945312 9.8125 -12.375 C 9.394531 -12.8125 8.8125 -13.03125 8.0625 -13.03125 C 7.3125 -13.03125 6.726562 -12.8125 6.3125 -12.375 C 5.90625 -11.945312 5.703125 -11.328125 5.703125 -10.515625 C 5.703125 -9.691406 5.90625 -9.0625 6.3125 -8.625 C 6.726562 -8.1875 7.3125 -7.96875 8.0625 -7.96875 Z M 8.03125 3.75 C 9.351562 3.75 10.316406 3.5625 10.921875 3.1875 C 11.523438 2.8125 11.828125 2.320312 11.828125 1.71875 C 11.828125 1.238281 11.671875 0.882812 11.359375 0.65625 C 11.054688 0.425781 10.566406 0.300781 9.890625 0.28125 L 6.828125 0.140625 C 6.722656 0.140625 6.625 0.132812 6.53125 0.125 C 6.445312 0.113281 6.363281 0.109375 6.28125 0.109375 C 5.625 0.109375 5.125 0.25 4.78125 0.53125 C 4.445312 0.8125 4.28125 1.203125 4.28125 1.703125 C 4.28125 2.359375 4.59375 2.863281 5.21875 3.21875 C 5.84375 3.570312 6.78125 3.75 8.03125 3.75 Z M 8.03125 3.75 "/></g></g></g><g fill="#000000" fill-opacity="1"><g transform="translate(262.643198, 130.124992)"><g/></g></g><g fill="#000000" fill-opacity="1"><g transform="translate(269.419908, 130.124992)"><g><path d="M 2.671875 0 L 2.671875 -20.515625 L 11.421875 -20.515625 C 12.679688 -20.515625 13.75 -20.3125 14.625 -19.90625 C 15.5 -19.507812 16.160156 -18.941406 16.609375 -18.203125 C 17.054688 -17.472656 17.28125 -16.609375 17.28125 -15.609375 C 17.28125 -14.703125 17.0625 -13.898438 16.625 -13.203125 C 16.1875 -12.515625 15.554688 -11.960938 14.734375 -11.546875 L 14.734375 -11.25 C 16.023438 -10.914062 17.019531 -10.300781 17.71875 -9.40625 C 18.414062 -8.519531 18.765625 -7.429688 18.765625 -6.140625 C 18.765625 -4.179688 18.171875 -2.664062 16.984375 -1.59375 C 15.804688 -0.53125 14.054688 0 11.734375 0 Z M 10.578125 -12.328125 C 12.460938 -12.328125 13.40625 -13.179688 13.40625 -14.890625 C 13.40625 -15.753906 13.171875 -16.398438 12.703125 -16.828125 C 12.242188 -17.253906 11.535156 -17.46875 10.578125 -17.46875 L 6.71875 -17.46875 L 6.71875 -12.328125 Z M 11.328125 -3.21875 C 13.554688 -3.21875 14.671875 -4.226562 14.671875 -6.25 C 14.671875 -8.289062 13.554688 -9.3125 11.328125 -9.3125 L 6.71875 -9.3125 L 6.71875 -3.21875 Z M 11.328125 -3.21875 "/></g></g></g><g fill="#000000" fill-opacity="1"><g transform="translate(289.48346, 130.124992)"><g><path d="M 6.421875 0.296875 C 5.023438 0.296875 3.957031 -0.078125 3.21875 -0.828125 C 2.488281 -1.585938 2.125 -2.734375 2.125 -4.265625 L 2.125 -21.6875 L 6.015625 -21.6875 L 6.015625 -4.421875 C 6.015625 -3.472656 6.410156 -3 7.203125 -3 C 7.421875 -3 7.65625 -3.035156 7.90625 -3.109375 L 8.109375 -3.0625 L 8.453125 -0.0625 C 8.242188 0.0390625 7.960938 0.125 7.609375 0.1875 C 7.253906 0.257812 6.859375 0.296875 6.421875 0.296875 Z M 6.421875 0.296875 "/></g></g></g><g fill="#000000" fill-opacity="1"><g transform="translate(298.378769, 130.124992)"><g><path d="M 9 0.296875 C 7.476562 0.296875 6.144531 -0.015625 5 -0.640625 C 3.851562 -1.265625 2.960938 -2.175781 2.328125 -3.375 C 1.703125 -4.570312 1.390625 -6.023438 1.390625 -7.734375 C 1.390625 -9.429688 1.703125 -10.882812 2.328125 -12.09375 C 2.960938 -13.300781 3.851562 -14.210938 5 -14.828125 C 6.144531 -15.453125 7.476562 -15.765625 9 -15.765625 C 10.507812 -15.765625 11.835938 -15.453125 12.984375 -14.828125 C 14.128906 -14.210938 15.019531 -13.300781 15.65625 -12.09375 C 16.289062 -10.882812 16.609375 -9.429688 16.609375 -7.734375 C 16.609375 -6.023438 16.289062 -4.570312 15.65625 -3.375 C 15.019531 -2.175781 14.128906 -1.265625 12.984375 -0.640625 C 11.835938 -0.015625 10.507812 0.296875 9 0.296875 Z M 9 -3 C 11.394531 -3 12.59375 -4.578125 12.59375 -7.734375 C 12.59375 -9.367188 12.285156 -10.566406 11.671875 -11.328125 C 11.054688 -12.085938 10.164062 -12.46875 9 -12.46875 C 6.59375 -12.46875 5.390625 -10.890625 5.390625 -7.734375 C 5.390625 -4.578125 6.59375 -3 9 -3 Z M 9 -3 "/></g></g></g><g fill="#000000" fill-opacity="1"><g transform="translate(316.365813, 130.124992)"><g><path d="M 9.015625 0.296875 C 7.523438 0.296875 6.203125 -0.015625 5.046875 -0.640625 C 3.898438 -1.265625 3.003906 -2.175781 2.359375 -3.375 C 1.710938 -4.582031 1.390625 -6.035156 1.390625 -7.734375 C 1.390625 -9.429688 1.710938 -10.882812 2.359375 -12.09375 C 3.003906 -13.300781 3.894531 -14.210938 5.03125 -14.828125 C 6.175781 -15.453125 7.484375 -15.765625 8.953125 -15.765625 C 12.210938 -15.765625 14.300781 -14.582031 15.21875 -12.21875 L 12.5625 -10.3125 L 12.265625 -10.3125 C 11.941406 -11.039062 11.523438 -11.582031 11.015625 -11.9375 C 10.503906 -12.289062 9.816406 -12.46875 8.953125 -12.46875 C 7.828125 -12.46875 6.953125 -12.078125 6.328125 -11.296875 C 5.703125 -10.523438 5.390625 -9.335938 5.390625 -7.734375 C 5.390625 -6.140625 5.707031 -4.953125 6.34375 -4.171875 C 6.976562 -3.390625 7.867188 -3 9.015625 -3 C 9.859375 -3 10.570312 -3.222656 11.15625 -3.671875 C 11.738281 -4.128906 12.160156 -4.785156 12.421875 -5.640625 L 12.71875 -5.671875 L 15.46875 -4.15625 C 15.082031 -2.84375 14.359375 -1.769531 13.296875 -0.9375 C 12.234375 -0.113281 10.804688 0.296875 9.015625 0.296875 Z M 9.015625 0.296875 "/></g></g></g><g fill="#000000" fill-opacity="1"><g transform="translate(332.318441, 130.124992)"><g><path d="M 2.234375 0 L 2.234375 -21.6875 L 6.125 -21.6875 L 6.125 -9.65625 L 6.5 -9.65625 L 10.96875 -15.46875 L 14.921875 -15.46875 L 14.921875 -15.15625 L 9.65625 -8.359375 L 15.5 -0.34375 L 15.5 0 L 11.40625 0 L 6.5 -6.53125 L 6.125 -6.53125 L 6.125 0 Z M 2.234375 0 "/></g></g></g><g fill="#000000" fill-opacity="1"><g transform="translate(347.850155, 130.124992)"><g><path d="M 7.234375 0.296875 C 6.179688 0.296875 5.210938 0.171875 4.328125 -0.078125 C 3.453125 -0.328125 2.703125 -0.664062 2.078125 -1.09375 C 1.460938 -1.53125 1.003906 -2.03125 0.703125 -2.59375 L 2.859375 -4.921875 L 3.15625 -4.921875 C 3.664062 -4.234375 4.269531 -3.710938 4.96875 -3.359375 C 5.675781 -3.015625 6.441406 -2.84375 7.265625 -2.84375 C 8.023438 -2.84375 8.597656 -2.976562 8.984375 -3.25 C 9.367188 -3.519531 9.5625 -3.910156 9.5625 -4.421875 C 9.5625 -4.816406 9.421875 -5.144531 9.140625 -5.40625 C 8.867188 -5.675781 8.421875 -5.882812 7.796875 -6.03125 L 5.75 -6.53125 C 4.21875 -6.894531 3.097656 -7.453125 2.390625 -8.203125 C 1.679688 -8.953125 1.328125 -9.90625 1.328125 -11.0625 C 1.328125 -12.03125 1.570312 -12.867188 2.0625 -13.578125 C 2.5625 -14.285156 3.253906 -14.828125 4.140625 -15.203125 C 5.035156 -15.578125 6.078125 -15.765625 7.265625 -15.765625 C 8.660156 -15.765625 9.816406 -15.5625 10.734375 -15.15625 C 11.648438 -14.757812 12.363281 -14.222656 12.875 -13.546875 L 10.796875 -11.3125 L 10.515625 -11.3125 C 10.085938 -11.789062 9.601562 -12.144531 9.0625 -12.375 C 8.53125 -12.601562 7.929688 -12.71875 7.265625 -12.71875 C 5.734375 -12.71875 4.96875 -12.238281 4.96875 -11.28125 C 4.96875 -10.875 5.109375 -10.546875 5.390625 -10.296875 C 5.679688 -10.046875 6.1875 -9.84375 6.90625 -9.6875 L 8.8125 -9.265625 C 10.382812 -8.921875 11.53125 -8.378906 12.25 -7.640625 C 12.976562 -6.898438 13.34375 -5.898438 13.34375 -4.640625 C 13.34375 -3.660156 13.097656 -2.796875 12.609375 -2.046875 C 12.128906 -1.296875 11.429688 -0.71875 10.515625 -0.3125 C 9.597656 0.09375 8.503906 0.296875 7.234375 0.296875 Z M 7.234375 0.296875 "/></g></g></g><g fill="#000000" fill-opacity="1"><g transform="translate(362.119129, 130.124992)"><g/></g></g><g fill="#000000" fill-opacity="1"><g transform="translate(368.895839, 130.124992)"><g><path d="M 2.703125 0 L 2.703125 -12.40625 L 0.515625 -12.40625 L 0.515625 -15.484375 L 2.703125 -15.484375 C 2.546875 -16.140625 2.46875 -16.753906 2.46875 -17.328125 C 2.46875 -18.304688 2.691406 -19.144531 3.140625 -19.84375 C 3.585938 -20.539062 4.234375 -21.070312 5.078125 -21.4375 C 5.921875 -21.800781 6.921875 -21.984375 8.078125 -21.984375 C 9.796875 -21.984375 11.070312 -21.691406 11.90625 -21.109375 L 11 -18.234375 L 10.703125 -18.1875 C 10.117188 -18.59375 9.375 -18.796875 8.46875 -18.796875 C 7.769531 -18.796875 7.242188 -18.625 6.890625 -18.28125 C 6.546875 -17.945312 6.375 -17.484375 6.375 -16.890625 C 6.375 -16.640625 6.390625 -16.40625 6.421875 -16.1875 C 6.453125 -15.976562 6.507812 -15.742188 6.59375 -15.484375 L 11.015625 -15.484375 L 11.015625 -12.40625 L 6.59375 -12.40625 L 6.59375 0 Z M 2.703125 0 "/></g></g></g><g fill="#000000" fill-opacity="1"><g transform="translate(380.064081, 130.124992)"><g><path d="M 9 0.296875 C 7.476562 0.296875 6.144531 -0.015625 5 -0.640625 C 3.851562 -1.265625 2.960938 -2.175781 2.328125 -3.375 C 1.703125 -4.570312 1.390625 -6.023438 1.390625 -7.734375 C 1.390625 -9.429688 1.703125 -10.882812 2.328125 -12.09375 C 2.960938 -13.300781 3.851562 -14.210938 5 -14.828125 C 6.144531 -15.453125 7.476562 -15.765625 9 -15.765625 C 10.507812 -15.765625 11.835938 -15.453125 12.984375 -14.828125 C 14.128906 -14.210938 15.019531 -13.300781 15.65625 -12.09375 C 16.289062 -10.882812 16.609375 -9.429688 16.609375 -7.734375 C 16.609375 -6.023438 16.289062 -4.570312 15.65625 -3.375 C 15.019531 -2.175781 14.128906 -1.265625 12.984375 -0.640625 C 11.835938 -0.015625 10.507812 0.296875 9 0.296875 Z M 9 -3 C 11.394531 -3 12.59375 -4.578125 12.59375 -7.734375 C 12.59375 -9.367188 12.285156 -10.566406 11.671875 -11.328125 C 11.054688 -12.085938 10.164062 -12.46875 9 -12.46875 C 6.59375 -12.46875 5.390625 -10.890625 5.390625 -7.734375 C 5.390625 -4.578125 6.59375 -3 9 -3 Z M 9 -3 "/></g></g></g><g fill="#000000" fill-opacity="1"><g transform="translate(398.051126, 130.124992)"><g><path d="M 2.234375 0 L 2.234375 -15.46875 L 6 -15.46875 L 6 -13.171875 L 6.296875 -13.125 C 6.671875 -13.976562 7.160156 -14.601562 7.765625 -15 C 8.378906 -15.40625 9.117188 -15.609375 9.984375 -15.609375 C 10.867188 -15.609375 11.539062 -15.460938 12 -15.171875 L 11.34375 -11.8125 L 11.046875 -11.75 C 10.785156 -11.851562 10.539062 -11.925781 10.3125 -11.96875 C 10.082031 -12.019531 9.796875 -12.046875 9.453125 -12.046875 C 8.367188 -12.046875 7.539062 -11.664062 6.96875 -10.90625 C 6.40625 -10.144531 6.125 -8.921875 6.125 -7.234375 L 6.125 0 Z M 2.234375 0 "/></g></g></g><g fill="#000000" fill-opacity="1"><g transform="translate(410.18747, 130.124992)"><g/></g></g><g fill="#000000" fill-opacity="1"><g transform="translate(416.964203, 130.124992)"><g><path d="M 10.046875 -20.515625 C 13.378906 -20.515625 15.921875 -19.648438 17.671875 -17.921875 C 19.421875 -16.203125 20.296875 -13.644531 20.296875 -10.25 C 20.296875 -6.863281 19.421875 -4.304688 17.671875 -2.578125 C 15.921875 -0.859375 13.378906 0 10.046875 0 L 2.671875 0 L 2.671875 -20.515625 Z M 9.8125 -3.40625 C 11.925781 -3.40625 13.503906 -3.945312 14.546875 -5.03125 C 15.597656 -6.113281 16.125 -7.851562 16.125 -10.25 C 16.125 -12.65625 15.597656 -14.398438 14.546875 -15.484375 C 13.503906 -16.566406 11.925781 -17.109375 9.8125 -17.109375 L 6.71875 -17.109375 L 6.71875 -3.40625 Z M 9.8125 -3.40625 "/></g></g></g><g fill="#000000" fill-opacity="1"><g transform="translate(438.893828, 130.124992)"><g><path d="M 15.296875 -6.859375 L 5.34375 -6.859375 C 5.457031 -5.515625 5.84375 -4.535156 6.5 -3.921875 C 7.15625 -3.304688 8.046875 -3 9.171875 -3 C 10.066406 -3 10.789062 -3.164062 11.34375 -3.5 C 11.894531 -3.832031 12.335938 -4.335938 12.671875 -5.015625 L 12.96875 -5.015625 L 15.546875 -3.359375 C 15.035156 -2.265625 14.269531 -1.378906 13.25 -0.703125 C 12.238281 -0.0351562 10.878906 0.296875 9.171875 0.296875 C 7.578125 0.296875 6.195312 -0.00390625 5.03125 -0.609375 C 3.863281 -1.222656 2.960938 -2.128906 2.328125 -3.328125 C 1.703125 -4.535156 1.390625 -6.003906 1.390625 -7.734375 C 1.390625 -9.492188 1.71875 -10.972656 2.375 -12.171875 C 3.039062 -13.378906 3.941406 -14.28125 5.078125 -14.875 C 6.210938 -15.46875 7.484375 -15.765625 8.890625 -15.765625 C 11.078125 -15.765625 12.753906 -15.1875 13.921875 -14.03125 C 15.085938 -12.875 15.671875 -11.171875 15.671875 -8.921875 C 15.671875 -8.109375 15.644531 -7.476562 15.59375 -7.03125 Z M 11.953125 -9.375 C 11.910156 -10.550781 11.632812 -11.40625 11.125 -11.9375 C 10.625 -12.476562 9.878906 -12.75 8.890625 -12.75 C 6.929688 -12.75 5.78125 -11.625 5.4375 -9.375 Z M 11.953125 -9.375 "/></g></g></g><g fill="#000000" fill-opacity="1"><g transform="translate(455.716367, 130.124992)"><g><path d="M 10.65625 0 L 6.015625 0 L 0.296875 -15.46875 L 4.359375 -15.46875 L 8.203125 -4.453125 L 8.53125 -4.453125 L 12.390625 -15.46875 L 16.359375 -15.46875 Z M 10.65625 0 "/></g></g></g><g fill="#000000" fill-opacity="1"><g transform="translate(472.356488, 130.124992)"><g><path d="M 15.296875 -6.859375 L 5.34375 -6.859375 C 5.457031 -5.515625 5.84375 -4.535156 6.5 -3.921875 C 7.15625 -3.304688 8.046875 -3 9.171875 -3 C 10.066406 -3 10.789062 -3.164062 11.34375 -3.5 C 11.894531 -3.832031 12.335938 -4.335938 12.671875 -5.015625 L 12.96875 -5.015625 L 15.546875 -3.359375 C 15.035156 -2.265625 14.269531 -1.378906 13.25 -0.703125 C 12.238281 -0.0351562 10.878906 0.296875 9.171875 0.296875 C 7.578125 0.296875 6.195312 -0.00390625 5.03125 -0.609375 C 3.863281 -1.222656 2.960938 -2.128906 2.328125 -3.328125 C 1.703125 -4.535156 1.390625 -6.003906 1.390625 -7.734375 C 1.390625 -9.492188 1.71875 -10.972656 2.375 -12.171875 C 3.039062 -13.378906 3.941406 -14.28125 5.078125 -14.875 C 6.210938 -15.46875 7.484375 -15.765625 8.890625 -15.765625 C 11.078125 -15.765625 12.753906 -15.1875 13.921875 -14.03125 C 15.085938 -12.875 15.671875 -11.171875 15.671875 -8.921875 C 15.671875 -8.109375 15.644531 -7.476562 15.59375 -7.03125 Z M 11.953125 -9.375 C 11.910156 -10.550781 11.632812 -11.40625 11.125 -11.9375 C 10.625 -12.476562 9.878906 -12.75 8.890625 -12.75 C 6.929688 -12.75 5.78125 -11.625 5.4375 -9.375 Z M 11.953125 -9.375 "/></g></g></g><g fill="#000000" fill-opacity="1"><g transform="translate(489.178982, 130.124992)"><g><path d="M 6.421875 0.296875 C 5.023438 0.296875 3.957031 -0.078125 3.21875 -0.828125 C 2.488281 -1.585938 2.125 -2.734375 2.125 -4.265625 L 2.125 -21.6875 L 6.015625 -21.6875 L 6.015625 -4.421875 C 6.015625 -3.472656 6.410156 -3 7.203125 -3 C 7.421875 -3 7.65625 -3.035156 7.90625 -3.109375 L 8.109375 -3.0625 L 8.453125 -0.0625 C 8.242188 0.0390625 7.960938 0.125 7.609375 0.1875 C 7.253906 0.257812 6.859375 0.296875 6.421875 0.296875 Z M 6.421875 0.296875 "/></g></g></g><g fill="#000000" fill-opacity="1"><g transform="translate(498.07429, 130.124992)"><g><path d="M 9 0.296875 C 7.476562 0.296875 6.144531 -0.015625 5 -0.640625 C 3.851562 -1.265625 2.960938 -2.175781 2.328125 -3.375 C 1.703125 -4.570312 1.390625 -6.023438 1.390625 -7.734375 C 1.390625 -9.429688 1.703125 -10.882812 2.328125 -12.09375 C 2.960938 -13.300781 3.851562 -14.210938 5 -14.828125 C 6.144531 -15.453125 7.476562 -15.765625 9 -15.765625 C 10.507812 -15.765625 11.835938 -15.453125 12.984375 -14.828125 C 14.128906 -14.210938 15.019531 -13.300781 15.65625 -12.09375 C 16.289062 -10.882812 16.609375 -9.429688 16.609375 -7.734375 C 16.609375 -6.023438 16.289062 -4.570312 15.65625 -3.375 C 15.019531 -2.175781 14.128906 -1.265625 12.984375 -0.640625 C 11.835938 -0.015625 10.507812 0.296875 9 0.296875 Z M 9 -3 C 11.394531 -3 12.59375 -4.578125 12.59375 -7.734375 C 12.59375 -9.367188 12.285156 -10.566406 11.671875 -11.328125 C 11.054688 -12.085938 10.164062 -12.46875 9 -12.46875 C 6.59375 -12.46875 5.390625 -10.890625 5.390625 -7.734375 C 5.390625 -4.578125 6.59375 -3 9 -3 Z M 9 -3 "/></g></g></g><g fill="#000000" fill-opacity="1"><g transform="translate(516.061335, 130.124992)"><g><path d="M 2.234375 6.265625 L 2.234375 -15.46875 L 6.125 -15.46875 L 6.125 -13.453125 L 6.40625 -13.40625 C 6.863281 -14.1875 7.476562 -14.773438 8.25 -15.171875 C 9.019531 -15.566406 9.914062 -15.765625 10.9375 -15.765625 C 12.1875 -15.765625 13.273438 -15.46875 14.203125 -14.875 C 15.140625 -14.289062 15.863281 -13.394531 16.375 -12.1875 C 16.894531 -10.988281 17.15625 -9.503906 17.15625 -7.734375 C 17.15625 -5.960938 16.878906 -4.476562 16.328125 -3.28125 C 15.785156 -2.082031 15.023438 -1.1875 14.046875 -0.59375 C 13.078125 0 11.957031 0.296875 10.6875 0.296875 C 9.726562 0.296875 8.894531 0.132812 8.1875 -0.1875 C 7.488281 -0.507812 6.894531 -1.015625 6.40625 -1.703125 L 6.125 -1.640625 L 6.125 6.265625 Z M 9.609375 -3 C 10.765625 -3 11.640625 -3.378906 12.234375 -4.140625 C 12.835938 -4.898438 13.140625 -6.097656 13.140625 -7.734375 C 13.140625 -9.367188 12.835938 -10.566406 12.234375 -11.328125 C 11.640625 -12.085938 10.765625 -12.46875 9.609375 -12.46875 C 8.523438 -12.46875 7.664062 -12.070312 7.03125 -11.28125 C 6.394531 -10.5 6.078125 -9.316406 6.078125 -7.734375 C 6.078125 -6.148438 6.394531 -4.960938 7.03125 -4.171875 C 7.664062 -3.390625 8.523438 -3 9.609375 -3 Z M 9.609375 -3 "/></g></g></g><g fill="#000000" fill-opacity="1"><g transform="translate(534.595543, 130.124992)"><g><path d="M 15.296875 -6.859375 L 5.34375 -6.859375 C 5.457031 -5.515625 5.84375 -4.535156 6.5 -3.921875 C 7.15625 -3.304688 8.046875 -3 9.171875 -3 C 10.066406 -3 10.789062 -3.164062 11.34375 -3.5 C 11.894531 -3.832031 12.335938 -4.335938 12.671875 -5.015625 L 12.96875 -5.015625 L 15.546875 -3.359375 C 15.035156 -2.265625 14.269531 -1.378906 13.25 -0.703125 C 12.238281 -0.0351562 10.878906 0.296875 9.171875 0.296875 C 7.578125 0.296875 6.195312 -0.00390625 5.03125 -0.609375 C 3.863281 -1.222656 2.960938 -2.128906 2.328125 -3.328125 C 1.703125 -4.535156 1.390625 -6.003906 1.390625 -7.734375 C 1.390625 -9.492188 1.71875 -10.972656 2.375 -12.171875 C 3.039062 -13.378906 3.941406 -14.28125 5.078125 -14.875 C 6.210938 -15.46875 7.484375 -15.765625 8.890625 -15.765625 C 11.078125 -15.765625 12.753906 -15.1875 13.921875 -14.03125 C 15.085938 -12.875 15.671875 -11.171875 15.671875 -8.921875 C 15.671875 -8.109375 15.644531 -7.476562 15.59375 -7.03125 Z M 11.953125 -9.375 C 11.910156 -10.550781 11.632812 -11.40625 11.125 -11.9375 C 10.625 -12.476562 9.878906 -12.75 8.890625 -12.75 C 6.929688 -12.75 5.78125 -11.625 5.4375 -9.375 Z M 11.953125 -9.375 "/></g></g></g><g fill="#000000" fill-opacity="1"><g transform="translate(551.418083, 130.124992)"><g><path d="M 2.234375 0 L 2.234375 -15.46875 L 6 -15.46875 L 6 -13.171875 L 6.296875 -13.125 C 6.671875 -13.976562 7.160156 -14.601562 7.765625 -15 C 8.378906 -15.40625 9.117188 -15.609375 9.984375 -15.609375 C 10.867188 -15.609375 11.539062 -15.460938 12 -15.171875 L 11.34375 -11.8125 L 11.046875 -11.75 C 10.785156 -11.851562 10.539062 -11.925781 10.3125 -11.96875 C 10.082031 -12.019531 9.796875 -12.046875 9.453125 -12.046875 C 8.367188 -12.046875 7.539062 -11.664062 6.96875 -10.90625 C 6.40625 -10.144531 6.125 -8.921875 6.125 -7.234375 L 6.125 0 Z M 2.234375 0 "/></g></g></g><g fill="#000000" fill-opacity="1"><g transform="translate(563.554404, 130.124992)"><g><path d="M 7.234375 0.296875 C 6.179688 0.296875 5.210938 0.171875 4.328125 -0.078125 C 3.453125 -0.328125 2.703125 -0.664062 2.078125 -1.09375 C 1.460938 -1.53125 1.003906 -2.03125 0.703125 -2.59375 L 2.859375 -4.921875 L 3.15625 -4.921875 C 3.664062 -4.234375 4.269531 -3.710938 4.96875 -3.359375 C 5.675781 -3.015625 6.441406 -2.84375 7.265625 -2.84375 C 8.023438 -2.84375 8.597656 -2.976562 8.984375 -3.25 C 9.367188 -3.519531 9.5625 -3.910156 9.5625 -4.421875 C 9.5625 -4.816406 9.421875 -5.144531 9.140625 -5.40625 C 8.867188 -5.675781 8.421875 -5.882812 7.796875 -6.03125 L 5.75 -6.53125 C 4.21875 -6.894531 3.097656 -7.453125 2.390625 -8.203125 C 1.679688 -8.953125 1.328125 -9.90625 1.328125 -11.0625 C 1.328125 -12.03125 1.570312 -12.867188 2.0625 -13.578125 C 2.5625 -14.285156 3.253906 -14.828125 4.140625 -15.203125 C 5.035156 -15.578125 6.078125 -15.765625 7.265625 -15.765625 C 8.660156 -15.765625 9.816406 -15.5625 10.734375 -15.15625 C 11.648438 -14.757812 12.363281 -14.222656 12.875 -13.546875 L 10.796875 -11.3125 L 10.515625 -11.3125 C 10.085938 -11.789062 9.601562 -12.144531 9.0625 -12.375 C 8.53125 -12.601562 7.929688 -12.71875 7.265625 -12.71875 C 5.734375 -12.71875 4.96875 -12.238281 4.96875 -11.28125 C 4.96875 -10.875 5.109375 -10.546875 5.390625 -10.296875 C 5.679688 -10.046875 6.1875 -9.84375 6.90625 -9.6875 L 8.8125 -9.265625 C 10.382812 -8.921875 11.53125 -8.378906 12.25 -7.640625 C 12.976562 -6.898438 13.34375 -5.898438 13.34375 -4.640625 C 13.34375 -3.660156 13.097656 -2.796875 12.609375 -2.046875 C 12.128906 -1.296875 11.429688 -0.71875 10.515625 -0.3125 C 9.597656 0.09375 8.503906 0.296875 7.234375 0.296875 Z M 7.234375 0.296875 "/></g></g></g></svg>