<?xml version="1.0" encoding="utf-8"?>
<!DOCTYPE svg PUBLIC "-//W3C//DTD SVG 20010904//EN" "http://www.w3.org/TR/2001/REC-SVG-20010904/DTD/svg10.dtd">
<svg version="1.0" xmlns="http://www.w3.org/2000/svg" width="1918px" height="546px" viewBox="60 0 2118 546" preserveAspectRatio="xMidYMid meet">
 <g fill="#4a514d">
  <path d="M448.2 364 c-10.2 -2.7 -16.6 -6.4 -24.3 -14 -7.2 -7.1 -12.7 -16.9 -15.4 -27.5 -2.8 -10.9 -3.4 -25.3 -3.5 -83.7 l0 -57.8 16 0 15.9 0 0.3 65.3 0.3 65.2 2.6 6.7 c3.7 9.5 8.5 15 16.7 19 6.5 3.2 7 3.3 19.2 3.3 11.1 -0.1 13.3 -0.4 19.2 -2.7 8.6 -3.4 15.8 -8.1 23.6 -15.2 l6.2 -5.8 0 -67.9 0 -67.9 16 0 16 0 0 91 0 91 -11.1 0 c-6.1 0 -11.9 -0.4 -12.9 -1 -2.4 -1.3 -3.7 -5.7 -4.6 -14.6 -0.3 -4 -1 -7.8 -1.4 -8.5 -0.6 -0.9 -2.7 0.5 -7.8 5.2 -8.8 8.3 -19.5 15 -29.7 18.5 -11 3.8 -30.2 4.4 -41.3 1.4z"/>
  <path d="M867 364.6 c-41.5 -7.5 -66.4 -38 -69.5 -85.1 -1.3 -18.5 2.4 -39 9.6 -54.5 11.1 -23.7 30.7 -39 57.3 -44.6 9.7 -2 29.9 -2 40.1 0.1 22.3 4.6 41.5 18 52.6 36.6 13.5 22.6 17.4 56.7 9.9 86.4 -2.6 10.4 -10.5 26.4 -17.1 34.3 -9.6 11.6 -25 21 -41.4 25.2 -10.3 2.7 -30.9 3.5 -41.5 1.6z m33.5 -25.1 c17.1 -4.5 28.8 -17.7 34.7 -39 1.9 -7 2.2 -10.5 2.2 -28 0 -17.5 -0.3 -21 -2.2 -27.9 -7.5 -27 -21.7 -39.5 -46.9 -41.2 -15.3 -1 -29.7 3.3 -38.9 11.8 -13 11.8 -19.4 30.8 -19.4 57.3 0 37.3 13.1 60.2 38.3 67 7.1 1.9 24.8 1.9 32.2 0z"/>
  <path d="M1037 364.4 c-8.8 -1.9 -17.3 -4.9 -24.9 -9 -8.1 -4.4 -15.7 -10.3 -15.3 -11.8 0.5 -1.7 6.3 -10.8 8.6 -13.3 3.2 -3.7 8.7 -3.1 16 1.7 14.2 9.2 27.3 12.8 41.4 11.6 18.1 -1.7 29.2 -10.1 32.3 -24.5 2.4 -11.1 -2 -20 -13.1 -26.4 -2.5 -1.4 -14.2 -5.8 -26 -9.7 -11.7 -3.9 -25 -9 -29.3 -11.2 -10.4 -5.4 -17.8 -12.7 -22 -21.5 -3 -6.4 -3.2 -7.4 -3.2 -18.3 0 -13.6 1.9 -20 8.8 -29.1 12 -16.1 30 -24 54.8 -24 20.4 -0.1 36 4.7 50.8 15.6 l6.2 4.6 -2.8 5 c-3.7 6.7 -7.6 10.9 -10.2 10.9 -1.2 0 -6.1 -2 -10.9 -4.4 -14.4 -7.1 -18.1 -8.1 -31.7 -8.1 -13.8 0.1 -20.2 2 -27.2 8 -11.2 9.5 -11.3 25.8 -0.3 34 5.9 4.5 10.7 6.5 31.9 13.7 24.8 8.3 33.5 12.5 41.2 19.6 8.6 7.9 12.2 15.8 12.7 27.7 0.2 5.1 -0.1 11.5 -0.6 14.2 -5 23.3 -22.4 39.4 -48.4 44.7 -9.5 2 -29.8 2 -38.8 0z"/>
  <path d="M1226.5 364.9 c-7.8 -1.1 -18.7 -4.5 -25 -7.6 -27.5 -14 -43.7 -40.8 -46.4 -77.2 -3.9 -51.9 21.2 -90.2 65.4 -99.7 10.4 -2.2 29.1 -2 39 0.5 20.9 5.4 36.8 18 45.8 36.1 2.5 5.2 5.6 13.3 6.7 18 2.3 9.7 3.6 25 2.6 30.3 -1.3 7.1 3.1 6.7 -66.2 6.7 l-62.4 0 0 5.3 c0 12.8 4.9 30.1 11.1 39.8 5.4 8.3 12.3 14.5 20.4 18.4 9.5 4.5 17.1 5.8 30.7 5.3 13.6 -0.6 24 -3.8 37.7 -11.7 9.4 -5.4 13.7 -6.3 16.6 -3.4 0.9 0.9 3.5 4.1 5.8 7.1 l4.2 5.5 -6.3 5.8 c-17.4 16 -51.5 24.9 -79.7 20.8z m59.9 -117.6 c-3 -29.4 -19.2 -45.3 -45.8 -45.3 -17.4 0 -27.4 3.6 -37.1 13.4 -3.3 3.4 -7.5 8.9 -9.3 12.3 -3 5.8 -7.2 19.3 -7.2 23.5 0 1.7 2.1 1.8 50 1.8 l50 0 -0.6 -5.7z"/>
  <path d="M1408.5 364.5 c-25.4 -4.6 -46.7 -22.5 -57.1 -47.9 -13.8 -33.8 -9.6 -78.6 10 -106 16.1 -22.6 44.3 -34.3 76.3 -31.6 11.6 1 20.1 3.3 29.8 8.1 8.5 4.2 20.5 13.1 20.5 15.2 0 0.6 -2.4 4.1 -5.3 7.7 -6.5 8.1 -9.3 8.7 -16.7 4 -11.8 -7.6 -22.5 -11 -34.5 -11 -27.5 0 -46.1 15.4 -53.1 44 -2.9 11.4 -2.6 41.4 0.4 52.3 5.5 20 16.8 33.8 32.2 39.2 13.1 4.6 30.4 3.8 42.5 -1.9 3.9 -1.8 9.8 -5.4 13.1 -8 9.1 -6.8 11.7 -6.5 18.3 2 2.8 3.7 5.1 7 5.1 7.4 0 2.8 -12.6 13.2 -21.5 17.7 -17.2 8.8 -41.2 12.3 -60 8.8z"/>
  <path d="M1563.2 364 c-20.4 -5.4 -34.4 -20.3 -40.4 -43.1 -2.1 -8.2 -2.2 -10.3 -2.5 -74.1 l-0.4 -65.8 16 0 16.1 0 0 62.8 c0 68.3 0.2 70.2 5.7 80.5 6.6 12.1 18 17.3 35.6 16.5 15.2 -0.8 26.6 -5.9 40.2 -18.1 l6.5 -5.8 0 -68 0 -67.9 16 0 16 0 0 91 0 91 -11.5 0 c-15.4 0 -15.4 0 -17.4 -16.3 -0.5 -4.3 -1.2 -8.1 -1.5 -8.5 -0.4 -0.3 -3 1.7 -5.9 4.5 -11.2 10.9 -23.3 18 -36.5 21.4 -10.1 2.5 -26 2.5 -36 -0.1z"/>
  <path d="M610 272 l0 -91 9.9 0 c5.5 0 11.1 0.4 12.5 1 3.4 1.2 5.2 5.2 6 13 0.4 3.6 0.9 8 1.3 9.8 l0.5 3.3 6.7 -6.4 c11.8 -11.3 23.8 -18.3 37 -21.3 8.6 -2 24.7 -2 33.5 0 24.5 5.7 40.2 25.8 43.5 55.9 0.7 5.8 1.1 33 1.1 68.2 l0 58.5 -16 0 -16 0 0 -61.7 c0 -65.8 -0.3 -70.1 -5 -79.2 -3.2 -6.4 -8.6 -11.8 -14.8 -14.8 -5.3 -2.6 -6.6 -2.8 -18.2 -2.8 -9.7 0 -13.8 0.4 -18.4 1.9 -7.2 2.4 -18.9 9.9 -26.2 16.8 l-5.4 5.1 0 67.3 0 67.4 -16 0 -16 0 0 -91z"/>
  <path d="M1725 271.9 l0 -91.1 11.5 0.3 c15.8 0.6 15.4 0.1 17.2 20.5 0.7 8.7 1.5 15.9 1.7 16.1 0.2 0.2 1.8 -2.2 3.6 -5.4 13.1 -23.4 33.4 -35.8 55.7 -33.9 9 0.7 19.7 4.5 20.1 7.2 0.1 1 -0.6 6.9 -1.7 12.9 -2.1 11.5 -4.2 15.2 -8.1 14 -5 -1.6 -16.1 -3.5 -20.7 -3.5 -18.3 0 -33.3 9.9 -43.1 28.7 l-4.2 8.1 0 58.6 0 58.6 -16 0 -16 0 0 -91.1z"/>
 </g>
 <g fill="#7bbf62">
  <path d="M198.9 455.7 c-47.9 -21.3 -93.5 -61.2 -106.9 -93.6 -6 -14.7 -6 -14.3 -5.9 -101.3 l0.1 -79.3 5.4 40.5 c8.1 61.8 14.4 104.7 16.5 113 2.6 9.9 10.2 25.4 18.1 36.4 7.9 11.2 23.5 27.1 35.6 36.4 39.6 30.4 58.9 29.6 101.7 -4.2 25.1 -19.8 42.6 -42.6 46.4 -60.4 0.8 -3.7 1.1 -30.1 1.1 -85.6 l0 -80.2 -8.5 -7.4 c-16.9 -14.5 -34.4 -34.6 -53 -61 l-3.8 -5.5 7.9 7.6 c21.6 20.8 45.9 36.2 71.5 45.3 l9.4 3.4 0 93.8 0 93.9 -2.4 7 c-5.6 16.4 -14.2 29.6 -30 45.9 -21 21.5 -51 42.7 -77.2 54.2 -11.7 5.2 -16.4 5.4 -26 1.1z"/>
  <path d="M144 326.6 l0 -16.5 21.5 -0.3 21.5 -0.3 3.2 -3.3 3.3 -3.2 0.3 -79.6 c0.2 -75.8 0.2 -79.6 -1.5 -78.9 -17.7 7 -53.8 15.2 -79.3 18 -5.2 0.6 -4.9 0.4 4.7 -2.9 38.6 -13.3 69.2 -31.4 92.9 -55 5.6 -5.6 11.5 -12.1 13.3 -14.5 l3.1 -4.4 0 107.2 c0 118.4 -0.4 111.1 6.3 115.1 2.9 1.8 5.1 2 23.5 2 l20.2 0 0 16.5 0 16.5 -66.5 0 -66.5 0 0 -16.4z"/>
 </g>
</svg>