<svg width="574" height="576" viewBox="0 0 574 576" fill="none" xmlns="http://www.w3.org/2000/svg">
<path d="M0 149.004C0 135.749 10.7452 125.004 24 125.004H111C124.255 125.004 135 135.749 135 149.004V416C135 429.255 145.745 440 159 440H426.708C439.963 440 450.708 450.745 450.708 464V552C450.708 565.255 439.963 576 426.708 576H24C10.7452 576 0 565.255 0 552V149.004Z" fill="black"/>
<path fill-rule="evenodd" clip-rule="evenodd" d="M147.292 0C134.037 0 123.292 10.7452 123.292 24V426.996C123.292 440.251 134.037 450.996 147.292 450.996H550C563.255 450.996 574 440.251 574 426.996V24C574 10.7452 563.255 0 550 0H147.292ZM168.521 21.2426C155.266 21.2426 144.521 31.9877 144.521 45.2425V405.753C144.521 419.008 155.266 429.753 168.521 429.753H528.771C542.026 429.753 552.771 419.008 552.771 405.753V45.2426C552.771 31.9877 542.026 21.2426 528.771 21.2426H168.521Z" fill="black"/>
<path fill-rule="evenodd" clip-rule="evenodd" d="M382.095 146.764C383.732 135.282 375.751 124.645 364.27 123.006C352.788 121.367 342.153 129.346 340.516 140.828L317.242 304.061C315.605 315.543 323.585 326.18 335.067 327.819C346.549 329.458 357.183 321.479 358.821 309.997L382.095 146.764ZM399.085 157.288C406.971 149.553 419.63 149.679 427.359 157.569L475.859 207.077C475.897 207.116 475.935 207.156 475.974 207.195C476.011 207.233 476.049 207.272 476.087 207.31C483.816 215.2 483.69 227.867 475.805 235.602L426.329 284.132C418.443 291.867 405.785 291.741 398.055 283.85C390.325 275.96 390.452 263.293 398.337 255.558L433.535 221.033L398.803 185.58C391.074 177.689 391.2 165.022 399.085 157.288ZM299.096 157.428C306.904 165.241 306.904 177.908 299.096 185.721L264.244 220.596L299.327 255.701C307.135 263.514 307.135 276.181 299.327 283.994C291.519 291.807 278.86 291.807 271.052 283.994L222.062 234.973C222.024 234.936 221.987 234.898 221.95 234.86C221.91 234.821 221.871 234.782 221.831 234.742C214.023 226.929 214.023 214.262 221.831 206.449L270.821 157.428C278.629 149.615 291.288 149.615 299.096 157.428Z" fill="black"/>
<path d="M7.34851 131.286L127.782 9.55005L134.723 133.737L7.34851 131.286Z" fill="black"/>
<path d="M444.809 568.055L565.651 445.911L444.809 449.996V568.055Z" fill="black"/>
</svg>
