<?xml version="1.0" standalone="no"?>
<!DOCTYPE svg PUBLIC "-//W3C//DTD SVG 20010904//EN"
 "http://www.w3.org/TR/2001/REC-SVG-20010904/DTD/svg10.dtd">
<svg version="1.0" xmlns="http://www.w3.org/2000/svg"
 width="576.000000pt" height="576.000000pt" viewBox="0 0 576.000000 576.000000"
 preserveAspectRatio="xMidYMid meet">
<metadata>
Created by potrace 1.14, written by Peter Selinger 2001-2017
</metadata>
<g transform="translate(0.000000,576.000000) scale(0.100000,-0.100000)"
fill="#000000" stroke="none">
<path d="M1415 5751 c-11 -4 -32 -13 -47 -20 -22 -11 -1161 -1152 -1281 -1284
-19 -20 -43 -54 -53 -75 -18 -36 -19 -108 -19 -2122 l0 -2085 22 -35 c36 -57
55 -76 110 -104 l52 -26 2078 2 2078 3 45 32 c45 31 108 93 860 853 414 419
441 448 467 499 17 34 18 135 21 2076 2 1122 0 2063 -3 2092 -8 70 -62 143
-130 177 l-50 25 -2065 0 c-1136 -1 -2074 -4 -2085 -8z m3954 -214 c52 -14
116 -70 149 -130 16 -30 17 -146 19 -1877 1 -1579 -1 -1853 -13 -1897 -17 -62
-83 -138 -129 -149 -16 -4 -34 -10 -40 -14 -15 -11 -3662 -9 -3716 2 -62 12
-121 59 -156 122 l-27 51 -1 1845 c-1 2063 -6 1907 71 1984 80 80 -92 74 1974
72 1015 -1 1856 -5 1869 -9z"/>
<path d="M3534 4512 c-83 -42 -112 -95 -129 -236 -3 -22 -7 -51 -9 -65 -3 -14
-10 -62 -16 -106 -6 -44 -13 -91 -15 -105 -2 -14 -7 -45 -10 -70 -3 -25 -8
-56 -10 -70 -5 -39 -14 -101 -21 -150 -3 -24 -7 -47 -9 -50 -1 -3 -6 -36 -10
-75 -4 -38 -8 -72 -10 -75 -2 -3 -6 -30 -9 -60 -3 -30 -8 -66 -10 -80 -3 -14
-7 -47 -11 -75 -3 -27 -8 -57 -10 -65 -2 -8 -7 -35 -9 -60 -3 -25 -8 -61 -11
-80 -3 -19 -7 -55 -10 -80 -3 -25 -8 -58 -12 -75 -3 -16 -7 -41 -9 -55 -1 -14
-8 -60 -14 -104 -18 -124 -1 -186 65 -245 116 -101 311 -35 340 115 6 32 13
76 19 127 9 68 19 133 22 152 4 20 9 55 19 136 3 23 8 55 11 73 3 17 7 45 9
61 4 33 12 90 21 145 3 19 8 49 10 65 4 38 13 104 19 136 2 13 6 45 9 71 3 26
10 76 16 110 5 35 12 81 15 103 5 40 22 165 30 220 17 111 35 244 36 265 7
123 -89 222 -212 218 -31 0 -70 -8 -85 -16z"/>
<path d="M2810 4238 c-52 -14 -72 -32 -352 -313 -283 -284 -296 -302 -285
-395 3 -28 16 -65 28 -82 35 -49 536 -546 567 -562 76 -39 173 -25 232 35 48
49 64 96 57 166 -7 67 -17 79 -235 297 l-170 169 166 166 c199 198 219 222
233 274 18 68 3 129 -44 180 -38 39 -60 55 -92 62 -40 10 -75 11 -105 3z"/>
<path d="M4068 4228 c-81 -36 -117 -86 -123 -171 -6 -80 17 -116 169 -272 76
-77 158 -161 184 -188 l47 -47 -189 -186 c-207 -204 -230 -237 -220 -324 9
-74 39 -117 107 -154 38 -20 58 -24 103 -21 30 2 67 12 83 22 46 28 551 524
569 558 9 17 16 32 17 35 0 3 3 10 7 15 13 21 -1 116 -22 150 -20 32 -117 134
-432 453 -123 124 -142 136 -226 146 -17 2 -50 -5 -74 -16z"/>
</g>
</svg>
