<svg width="548" height="548" viewBox="0 0 548 548" fill="none" xmlns="http://www.w3.org/2000/svg">
<path d="M527.723 427.136C531.985 422.874 531.985 415.964 527.723 411.702C523.461 407.44 516.551 407.44 512.289 411.702L527.723 427.136ZM26.3172 133.785L18.5074 126.161H18.5074L26.3172 133.785ZM398.17 519.04H45.8415V540.868H398.17V519.04ZM29.4706 502.669V152.845H7.64269V502.669H29.4706ZM512.289 411.702L409.746 514.245L425.18 529.679L527.723 427.136L512.289 411.702ZM34.1269 141.409L136.901 36.1282L121.281 20.8806L18.5074 126.161L34.1269 141.409ZM45.8415 519.04C36.8001 519.04 29.4706 511.71 29.4706 502.669H7.64269C7.64269 523.765 24.7448 540.868 45.8415 540.868V519.04ZM398.17 540.868C408.301 540.868 418.017 536.843 425.18 529.679L409.746 514.245C406.675 517.315 402.511 519.04 398.17 519.04V540.868ZM29.4706 152.845C29.4706 148.571 31.1417 144.467 34.1269 141.409L18.5074 126.161C11.5419 133.297 7.64269 142.873 7.64269 152.845H29.4706Z" fill="black"/>
<path d="M150.986 424.812H503.507C518.576 424.812 530.792 412.596 530.792 397.527V45.0066C530.792 29.9375 518.576 17.7217 503.507 17.7217H150.986C135.917 17.7217 123.701 29.9375 123.701 45.0065V397.527C123.701 412.596 135.917 424.812 150.986 424.812Z" fill="white"/>
<path d="M503.507 413.898H150.986V435.726H503.507V413.898ZM134.615 397.527V45.0065H112.787V397.527H134.615ZM519.878 45.0066V397.527H541.706V45.0066H519.878ZM150.986 28.6356H503.507V6.80773H150.986V28.6356ZM541.706 45.0066C541.706 23.9099 524.603 6.80773 503.507 6.80773V28.6356C512.548 28.6356 519.878 35.9651 519.878 45.0066H541.706ZM150.986 413.898C141.945 413.898 134.615 406.569 134.615 397.527H112.787C112.787 418.624 129.889 435.726 150.986 435.726V413.898ZM503.507 435.726C524.603 435.726 541.706 418.624 541.706 397.527H519.878C519.878 406.569 512.548 413.898 503.507 413.898V435.726ZM134.615 45.0065C134.615 35.9651 141.945 28.6356 150.986 28.6356V6.80773C129.889 6.80773 112.787 23.9099 112.787 45.0065H134.615Z" fill="black"/>
<path d="M121.004 41.9858L17.209 143.084C17.6583 244.632 18.557 455.547 18.557 486.82C18.557 518.093 34.7327 528.607 42.8206 529.955H409.472L509.222 426.161H160.095C128.822 426.161 121.004 405.492 121.004 395.157V41.9858Z" fill="black" stroke="black" stroke-width="2.69596"/>
<path d="M280.878 155.867L289.739 159.738L290.548 157.887V155.867H280.878ZM226.344 280.723L234.156 286.421L234.781 285.564L235.205 284.593L226.344 280.723ZM366.218 155.867H356.549V158.963L358.346 161.482L366.218 155.867ZM271.209 102.41V155.867H290.548V102.41H271.209ZM272.017 151.997L217.483 276.852L235.205 284.593L289.739 159.738L272.017 151.997ZM218.532 275.024C215.376 279.352 212.167 285.777 210.017 292.908C207.866 300.046 206.536 308.683 207.951 317.257C209.408 326.09 213.802 334.798 222.748 341.086C231.451 347.203 243.484 350.342 259.042 350.342V331.003C245.846 331.003 238.203 328.311 233.868 325.264C229.777 322.389 227.773 318.603 227.032 314.11C226.248 309.359 226.921 303.838 228.533 298.489C230.148 293.133 232.464 288.741 234.156 286.421L218.532 275.024ZM403.853 350.342C418.028 350.342 432.822 345.043 440.615 331.283C448.287 317.736 447.302 299.191 437.586 276.864L419.854 284.581C428.496 304.442 427.118 315.872 423.787 321.753C420.577 327.421 413.758 331.003 403.853 331.003V350.342ZM437.586 276.864C428.345 255.629 416.048 229.032 404.345 205.33C392.774 181.895 381.407 160.511 374.09 150.253L358.346 161.482C364.603 170.255 375.309 190.204 387.005 213.892C398.57 237.313 410.736 263.628 419.854 284.581L437.586 276.864ZM375.888 155.867V101.554H356.549V155.867H375.888ZM403.853 331.003H382.878V350.342H403.853V331.003ZM259.042 350.342H382.878V331.003H259.042V350.342Z" fill="black"/>
<line x1="264.698" y1="97.0166" x2="384.168" y2="97.0166" stroke="black" stroke-width="19.3388" stroke-linecap="round"/>
<path d="M333.417 230.726V157.747C333.165 155.083 330.93 153.048 328.253 153.048C325.577 153.048 323.342 155.083 323.09 157.747V158.619H312.258C309.594 158.872 307.557 161.107 307.557 163.783C307.557 166.46 309.594 168.695 312.258 168.947H323.09V189.006H312.258C310.803 188.869 309.359 189.35 308.279 190.334C307.199 191.315 306.584 192.709 306.584 194.17C306.584 195.629 307.199 197.022 308.279 198.006C309.359 198.99 310.803 199.471 312.258 199.334H323.09V230.731V230.729C314.407 231.84 306.338 235.794 300.139 241.975C292.734 249.469 288.58 259.579 288.58 270.114C288.58 280.649 292.734 290.757 300.139 298.251C309.209 307.332 322.104 311.476 334.766 309.378C347.428 307.281 358.296 299.2 363.952 287.677C369.605 276.157 369.351 262.614 363.265 251.313C357.179 240.015 346.011 232.349 333.28 230.73L333.417 230.726ZM349.069 290.764L349.071 290.766C343.551 296.279 336.067 299.375 328.266 299.373C320.465 299.369 312.983 296.268 307.467 290.75C301.953 285.233 298.855 277.75 298.855 269.949C298.855 262.148 301.953 254.666 307.467 249.148C312.984 243.632 320.465 240.53 328.266 240.527C336.067 240.523 343.551 243.62 349.071 249.134C354.573 254.646 357.632 262.138 357.563 269.926C357.581 277.728 354.514 285.221 349.024 290.766L349.069 290.764Z" fill="black" stroke="black" stroke-width="6.5"/>
</svg>
